<?xml version="1.0" encoding="UTF-8" standalone="no"?>
<!DOCTYPE svg PUBLIC "-//W3C//DTD SVG 1.1//EN" "http://www.w3.org/Graphics/SVG/1.1/DTD/svg11.dtd">
<svg width="100%" height="100%" viewBox="0 0 2894 2611" version="1.1" xmlns="http://www.w3.org/2000/svg" xmlns:xlink="http://www.w3.org/1999/xlink" xml:space="preserve" xmlns:serif="http://www.serif.com/" style="fill-rule:evenodd;clip-rule:evenodd;">
    <g id="Artboard1" transform="matrix(5.784,0,0,1.084,0,0)">
        <rect x="0" y="0" width="500" height="500" style="fill:none;"/>
        <g id="Layer-1" serif:id="Layer 1" transform="matrix(0.172891,0,0,0.922509,0,0)">
            <g id="path3" transform="matrix(0.989423,0,0,1,4.23226,0)">
                <path d="M145,312C94.865,286.528 76.472,246.822 100.464,210.904C124.455,174.985 185.068,151.291 251.954,151.684C318.84,152.077 378.599,176.479 401.309,212.673C424.019,248.866 405.131,289.599 354.101,314.477" style="fill:none;fill-rule:nonzero;stroke:rgb(34,254,0);stroke-width:15px;"/>
            </g>
            <g id="path31" serif:id="path3" transform="matrix(0.989423,0,0,1,573.222,0)">
                <path d="M145,312C94.865,286.528 76.472,246.822 100.464,210.904C124.455,174.985 185.068,151.291 251.954,151.684C318.84,152.077 378.599,176.479 401.309,212.673C424.019,248.866 405.131,289.599 354.101,314.477" style="fill:none;fill-rule:nonzero;stroke:rgb(34,254,0);stroke-width:15.08px;"/>
            </g>
            <g id="path32" serif:id="path3" transform="matrix(0.989423,0,0,1,1056.23,0)">
                <path d="M145,312C94.865,286.528 76.472,246.822 100.464,210.904C124.455,174.985 185.068,151.291 251.954,151.684C318.84,152.077 378.599,176.479 401.309,212.673C424.019,248.866 405.131,287.122 354.101,312" style="fill:none;fill-rule:nonzero;stroke:rgb(34,254,0);stroke-width:15.08px;"/>
            </g>
            <g id="path4" transform="matrix(1,0,0,1,2.75797,0)">
                <path d="M225.704,355.094C206.325,365.819 176.841,366.497 156.196,356.691C135.551,346.885 129.372,329.268 141.629,315.16C153.886,301.051 181.238,294.296 206.111,299.234C230.985,304.172 246.6,319.458 242.925,335.271C242.925,335.271 222.822,328.676 214.025,327C193.025,323 189.393,330.631 189.393,330.631C189.393,330.631 190.025,339 207.025,347C213.165,349.889 225.704,355.094 225.704,355.094Z" style="fill:none;fill-rule:nonzero;stroke:rgb(34,254,0);stroke-width:15px;stroke-linecap:round;stroke-linejoin:round;"/>
            </g>
            <g id="path41" serif:id="path4" transform="matrix(0.860537,0,0,0.860537,604.484,44.6568)">
                <path d="M231.23,349.663C239.304,351.196 247.676,348.533 253.389,342.478C259.647,335.845 261.657,326.263 258.591,317.675C258.578,317.638 258.565,317.601 258.551,317.564C252.897,302.057 235.361,287.27 209.506,282.137C178.1,275.902 143.946,285.914 128.47,303.728C117.665,316.165 115.554,330.273 120.126,343.308C123.986,354.314 133.352,365.138 148.717,372.436C167.374,381.297 191.941,383.326 213.029,378.366C223.095,376.033 230.601,367.506 231.643,357.169C231.901,354.612 231.749,352.084 231.23,349.663ZM203.077,364.359L203.232,364.429L203.077,364.359ZM210.338,348.513C213.001,349.73 214.594,352.507 214.3,355.42C214.007,358.334 211.891,360.737 209.039,361.398C191.716,365.472 171.521,363.97 156.196,356.691C135.551,346.885 129.372,329.268 141.629,315.16C153.886,301.051 181.238,294.296 206.111,299.234C224.695,302.923 238.111,312.389 242.175,323.535C243.037,325.952 242.472,328.649 240.71,330.515C238.949,332.382 236.29,333.103 233.827,332.383C227.336,330.394 218.926,327.934 214.025,327C193.025,323 189.393,330.631 189.393,330.631C189.393,330.631 190.025,339 207.025,347C207.995,347.456 209.124,347.97 210.338,348.513Z" style="fill:rgb(34,254,0);"/>
            </g>
            <g>
                <g id="path42" serif:id="path4" transform="matrix(0.860537,0,0,0.860537,1087.49,44.6568)">
                    <path d="M231.23,349.663C239.304,351.196 247.676,348.533 253.389,342.478C259.647,335.845 261.657,326.263 258.591,317.675C258.578,317.638 258.565,317.601 258.551,317.564C252.897,302.057 235.361,287.27 209.506,282.137C178.1,275.902 143.946,285.914 128.47,303.728C117.665,316.165 115.554,330.273 120.126,343.308C123.986,354.314 133.352,365.138 148.717,372.436C167.374,381.297 191.941,383.326 213.029,378.366C223.095,376.033 230.601,367.506 231.643,357.169C231.901,354.612 231.749,352.084 231.23,349.663ZM210.338,348.513C213.001,349.73 214.594,352.507 214.3,355.42C214.007,358.334 211.891,360.737 209.039,361.398C191.716,365.472 171.521,363.97 156.196,356.691C135.551,346.885 129.372,329.268 141.629,315.16C153.886,301.051 181.238,294.296 206.111,299.234C224.695,302.923 238.111,312.389 242.175,323.535C243.037,325.952 242.472,328.649 240.71,330.515C238.949,332.382 236.29,333.103 233.827,332.383C227.336,330.394 218.926,327.934 214.025,327C193.025,323 189.393,330.631 189.393,330.631C189.393,330.631 190.025,339 207.025,347C207.995,347.456 209.124,347.97 210.338,348.513Z" style="fill:rgb(34,254,0);"/>
                </g>
                <g id="path43" serif:id="path4" transform="matrix(-0.860537,0,0,0.860537,1520.51,44.6568)">
                    <path d="M231.23,349.663C231.749,352.084 231.901,354.612 231.643,357.169C230.601,367.506 223.095,376.033 212.974,378.379C191.941,383.326 167.374,381.297 148.717,372.436C133.352,365.138 123.986,354.314 120.126,343.308C115.554,330.273 117.665,316.165 128.47,303.728C143.946,285.914 178.1,275.902 209.506,282.137C235.361,287.27 252.897,302.057 258.551,317.564C258.565,317.601 258.578,317.638 258.591,317.675C261.657,326.263 259.647,335.845 253.389,342.478C247.676,348.533 239.304,351.196 231.23,349.663ZM210.338,348.513C213.001,349.73 214.594,352.507 214.3,355.42C214.007,358.334 211.891,360.737 209.039,361.398C191.716,365.472 171.521,363.97 156.196,356.691C135.551,346.885 129.372,329.268 141.629,315.16C153.886,301.051 181.238,294.296 206.111,299.234C224.695,302.923 238.111,312.389 242.175,323.535C243.037,325.952 242.472,328.649 240.71,330.515C238.949,332.382 236.29,333.103 233.827,332.383C227.336,330.394 218.926,327.934 214.025,327C193.025,323 189.393,330.631 189.393,330.631C189.393,330.631 190.025,339 207.025,347C207.995,347.456 209.124,347.97 210.338,348.513Z" style="fill:rgb(34,254,0);"/>
                </g>
            </g>
            <g id="path44" serif:id="path4" transform="matrix(-0.860537,0,0,0.860537,1037.5,44.6568)">
                <path d="M231.23,349.663C231.749,352.084 231.901,354.612 231.643,357.169C230.601,367.506 223.095,376.033 212.974,378.379C191.941,383.326 167.374,381.297 148.717,372.436C133.352,365.138 123.986,354.314 120.126,343.308C115.554,330.273 117.665,316.165 128.47,303.728C143.946,285.914 178.1,275.902 209.506,282.137C235.361,287.27 252.897,302.057 258.551,317.564C258.565,317.601 258.578,317.638 258.591,317.675C261.657,326.263 259.647,335.845 253.389,342.478C247.676,348.533 239.304,351.196 231.23,349.663ZM210.338,348.513C213.001,349.73 214.594,352.507 214.3,355.42C214.007,358.334 211.891,360.737 209.039,361.398C191.716,365.472 171.521,363.97 156.196,356.691C135.551,346.885 129.372,329.268 141.629,315.16C153.886,301.051 181.238,294.296 206.111,299.234C224.695,302.923 238.111,312.389 242.175,323.535C243.037,325.952 242.472,328.649 240.71,330.515C238.949,332.382 236.29,333.103 233.827,332.383C227.336,330.394 218.926,327.934 214.025,327C193.025,323 189.393,330.631 189.393,330.631C189.393,330.631 190.025,339 207.025,347C207.995,347.456 209.124,347.97 210.338,348.513Z" style="fill:rgb(34,254,0);"/>
            </g>
            <g id="path45" serif:id="path4" transform="matrix(-1,0,0,1,501.242,0)">
                <path d="M225.704,355.094C206.325,365.819 176.841,366.497 156.196,356.691C135.551,346.885 129.372,329.268 141.629,315.16C153.886,301.051 181.238,294.296 206.111,299.234C230.985,304.172 246.6,319.458 242.925,335.271C242.925,335.271 222.822,328.676 214.025,327C193.025,323 189.393,330.631 189.393,330.631C189.393,330.631 190.025,339 207.025,347C213.165,349.889 225.704,355.094 225.704,355.094Z" style="fill:none;fill-rule:nonzero;stroke:rgb(34,254,0);stroke-width:15px;stroke-linecap:round;stroke-linejoin:round;"/>
            </g>
            <g transform="matrix(1,0,0,1,-0.128862,0)">
                <g id="path6" transform="matrix(1,0,0,1,0,-1.7107)">
                    <path d="M83.233,357.1C77.15,338.648 83.187,317.511 97.501,307.145C111.815,296.779 130.55,299.977 141.778,314.703" style="fill:none;fill-rule:nonzero;stroke:rgb(34,254,0);stroke-width:15px;stroke-linecap:round;stroke-linejoin:round;"/>
                </g>
                <g id="path6-0" transform="matrix(-1,0,0,1,0,0)">
                    <path d="M-421.024,355.389C-427.108,336.938 -421.071,315.8 -406.757,305.434C-392.443,295.069 -373.708,298.266 -362.48,312.992" style="fill:none;fill-rule:nonzero;stroke:rgb(34,254,0);stroke-width:15px;stroke-linecap:round;stroke-linejoin:round;"/>
                </g>
            </g>
            <g id="path61" serif:id="path6" transform="matrix(1,0,0,1,571.861,1.7893)">
                <path d="M83.233,357.1C77.15,338.648 83.187,317.511 97.501,307.145C111.815,296.779 130.55,299.977 141.778,314.703" style="fill:none;fill-rule:nonzero;stroke:rgb(34,254,0);stroke-width:15px;stroke-linecap:round;stroke-linejoin:round;"/>
            </g>
            <g transform="matrix(1,0,0,1,0.5,0)">
                <g id="path62" serif:id="path6" transform="matrix(1,0,0,1,1054.87,1.7893)">
                    <path d="M83.233,357.1C77.15,338.648 83.187,317.511 97.501,307.145C111.815,296.779 130.55,299.977 141.778,314.703" style="fill:none;fill-rule:nonzero;stroke:rgb(34,254,0);stroke-width:15px;stroke-linecap:round;stroke-linejoin:round;"/>
                </g>
                <g id="path6-01" serif:id="path6-0" transform="matrix(-1,0,0,1,1047.87,3.5)">
                    <path d="M-421.024,355.389C-427.108,336.938 -421.071,315.8 -406.757,305.434C-392.443,295.069 -373.708,298.266 -362.48,312.992" style="fill:none;fill-rule:nonzero;stroke:rgb(34,254,0);stroke-width:15px;stroke-linecap:round;stroke-linejoin:round;"/>
                </g>
            </g>
            <g id="path6-02" serif:id="path6-0" transform="matrix(-1,0,0,1,564.861,3.5)">
                <path d="M-421.024,355.389C-427.108,336.938 -421.071,315.8 -406.757,305.434C-392.443,295.069 -373.708,298.266 -362.48,312.992" style="fill:none;fill-rule:nonzero;stroke:rgb(34,254,0);stroke-width:15px;stroke-linecap:round;stroke-linejoin:round;"/>
            </g>
            <g>
                <g id="path7" transform="matrix(1,0,0,1,0,-3.56947)">
                    <path d="M48,311C49.124,295.596 54.365,284.392 65,277C75.635,269.608 90.987,272.29 102,279" style="fill:none;fill-rule:nonzero;stroke:rgb(34,254,0);stroke-width:15px;stroke-linecap:round;stroke-linejoin:round;"/>
                </g>
                <g id="path71" serif:id="path7" transform="matrix(-1,0,0,1,504,-3.56947)">
                    <path d="M48,311C49.124,295.596 54.365,284.392 65,277C75.635,269.608 90.987,272.29 102,279" style="fill:none;fill-rule:nonzero;stroke:rgb(34,254,0);stroke-width:15px;stroke-linecap:round;stroke-linejoin:round;"/>
                </g>
            </g>
            <g id="path72" serif:id="path7" transform="matrix(1,0,0,1,569.99,-3.56947)">
                <path d="M48,311C49.124,295.596 54.365,284.392 65,277C75.635,269.608 90.987,272.29 102,279" style="fill:none;fill-rule:nonzero;stroke:rgb(34,254,0);stroke-width:15px;stroke-linecap:round;stroke-linejoin:round;"/>
            </g>
            <g>
                <g id="path73" serif:id="path7" transform="matrix(1,0,0,1,1053,-3.56947)">
                    <path d="M48,311C49.124,295.596 54.365,284.392 65,277C75.635,269.608 90.987,272.29 102,279" style="fill:none;fill-rule:nonzero;stroke:rgb(34,254,0);stroke-width:15px;stroke-linecap:round;stroke-linejoin:round;"/>
                </g>
                <g id="path74" serif:id="path7" transform="matrix(-1,0,0,1,1555,-3.56947)">
                    <path d="M48,311C49.124,295.596 54.365,284.392 65,277C75.635,269.608 90.987,272.29 102,279" style="fill:none;fill-rule:nonzero;stroke:rgb(34,254,0);stroke-width:15px;stroke-linecap:round;stroke-linejoin:round;"/>
                </g>
            </g>
            <path d="M1679.77,317.581C1681.07,318.85 1681.63,320.705 1681.24,322.483C1680.02,328.382 1680.52,334.355 1682.53,340.086C1685.86,349.557 1693.91,358.871 1707.14,365.152C1723.19,372.777 1744.33,374.523 1762.48,370.255C1771.14,368.248 1777.6,360.91 1778.5,352.014C1778.72,349.814 1778.59,347.638 1778.14,345.554C1784.39,346.742 1790.85,345.005 1795.67,340.85C1800.48,345.005 1806.94,346.742 1813.19,345.554C1812.74,347.638 1812.61,349.814 1812.84,352.014C1813.73,360.91 1820.19,368.248 1828.9,370.266C1847,374.523 1868.14,372.777 1884.2,365.152C1897.42,358.871 1905.48,349.557 1908.8,340.086C1910.81,334.355 1911.32,328.382 1910.1,322.483C1909.7,320.704 1910.26,318.849 1911.57,317.58C1920.25,309.279 1932.64,307.948 1942.39,315.009C1954.27,323.61 1958.99,341.231 1953.94,356.541C1952.64,360.472 1954.78,364.716 1958.71,366.012C1962.64,367.308 1966.89,365.169 1968.18,361.237C1975.3,339.644 1967.94,314.991 1951.19,302.86C1947.72,300.344 1944.03,298.467 1940.25,297.214C1939.36,296.934 1938.69,296.212 1938.47,295.31C1938.26,294.409 1938.53,293.459 1939.18,292.807C1941.3,290.679 1943.29,288.523 1945.12,286.333C1949.05,281.582 1954.48,278.309 1960.52,277.054C1966.45,275.768 1972.54,276.219 1977.39,279.589C1986.22,285.727 1990.25,295.186 1991.19,307.976C1991.49,312.105 1995.08,315.212 1999.21,314.911C2003.34,314.609 2006.45,311.013 2006.15,306.885C2004.83,288.866 1998.39,275.918 1985.95,267.272C1979.35,262.689 1971.27,261.102 1963.14,261.724C1962.22,261.806 1961.31,261.431 1960.72,260.72C1960.12,260.01 1959.91,259.053 1960.16,258.159C1964.29,242.029 1961.52,225.117 1951.34,208.717C1927.85,170.893 1850.17,141.184 1797.23,141.184C1742.03,141.184 1665.83,169.268 1641.04,206.769C1629.94,223.571 1626.89,241.25 1631.25,258.177C1631.49,259.076 1631.27,260.034 1630.67,260.744C1630.07,261.454 1629.16,261.827 1628.24,261.744C1620.1,261.096 1611.99,262.68 1605.39,267.272C1592.95,275.918 1586.5,288.866 1585.19,306.885C1584.88,311.013 1587.99,314.609 1592.12,314.911C1596.25,315.212 1599.85,312.105 1600.15,307.976C1601.08,295.186 1605.12,285.727 1613.95,279.589C1618.5,276.429 1624.13,275.835 1629.72,276.806C1636.2,277.934 1642.05,281.372 1646.19,286.485C1647.93,288.683 1649.85,290.818 1651.9,292.915C1652.55,293.573 1652.81,294.519 1652.59,295.415C1652.37,296.312 1651.7,297.031 1650.83,297.316C1647.13,298.555 1643.53,300.403 1640.14,302.86C1623.39,314.991 1616.03,339.644 1623.15,361.237C1624.44,365.169 1628.69,367.308 1632.62,366.012C1636.55,364.716 1638.69,360.472 1637.39,356.541C1632.35,341.231 1637.06,323.61 1648.94,315.009C1658.69,307.948 1671.08,309.279 1679.77,317.581ZM1760.16,344.565C1762.46,345.612 1763.83,348.002 1763.57,350.509C1763.32,353.016 1761.5,355.085 1759.05,355.653C1744.14,359.159 1726.76,357.866 1713.57,351.603C1695.81,343.164 1690.49,328.005 1701.04,315.863C1711.59,303.722 1735.12,297.909 1756.53,302.159C1772.52,305.334 1784.06,313.479 1787.56,323.07C1788.3,325.151 1787.82,327.471 1786.3,329.078C1784.79,330.684 1782.5,331.305 1780.38,330.684C1774.79,328.973 1767.56,326.856 1763.34,326.052C1750.95,323.694 1745.59,326.034 1743.44,327.742C1742.52,328.488 1742.19,329.745 1742.62,330.848C1743.67,333.376 1746.98,338.399 1757.31,343.263C1758.15,343.656 1759.12,344.098 1760.16,344.565ZM1831.17,344.565C1828.88,345.612 1827.51,348.002 1827.76,350.509C1828.01,353.016 1829.83,355.085 1832.29,355.653C1847.19,359.159 1864.57,357.866 1877.76,351.603C1895.53,343.164 1900.84,328.005 1890.3,315.863C1879.75,303.722 1856.21,297.909 1834.81,302.159C1818.81,305.334 1807.27,313.479 1803.77,323.07C1803.03,325.151 1803.52,327.471 1805.03,329.078C1806.55,330.684 1808.84,331.305 1810.96,330.684C1816.54,328.973 1823.78,326.856 1828,326.052C1840.38,323.694 1845.74,326.034 1847.89,327.742C1848.82,328.488 1849.15,329.745 1848.71,330.848C1847.66,333.376 1844.36,338.399 1834.02,343.263C1833.18,343.656 1832.21,344.098 1831.17,344.565ZM1897.29,301.749C1898.3,302.637 1899.76,302.801 1900.94,302.16C1941.98,279.832 1957.9,247.735 1938.59,216.628C1917.13,182.065 1853,156.184 1797.14,156.184C1741.23,156.184 1676.25,180.702 1653.56,215.039C1633.01,246.13 1648.83,279.724 1689.79,302.646C1690.99,303.317 1692.49,303.144 1693.51,302.217C1708.08,289.315 1734.75,282.543 1759.45,287.446C1774.15,290.365 1785.73,296.913 1793.3,304.869C1793.9,305.54 1794.76,305.922 1795.67,305.922C1796.57,305.922 1797.43,305.539 1798.04,304.869C1805.6,296.913 1817.18,290.365 1831.88,287.446C1856.28,282.602 1882.61,289.153 1897.29,301.749Z" style="fill:rgb(34,254,0);"/>
            <g id="path75" serif:id="path7" transform="matrix(-1,0,0,1,1071.99,-3.56947)">
                <path d="M48,311C49.124,295.596 54.365,284.392 65,277C75.635,269.608 90.987,272.29 102,279" style="fill:none;fill-rule:nonzero;stroke:rgb(34,254,0);stroke-width:15px;stroke-linecap:round;stroke-linejoin:round;"/>
            </g>
            <g transform="matrix(1,0,0,1,-2.70709,0)">
                <g id="path5" transform="matrix(-1,0,0,1,508.379,-1)">
                    <path d="M167,237C165.379,204 220.379,196 228.379,226" style="fill:none;fill-rule:nonzero;stroke:rgb(34,254,0);stroke-width:15px;stroke-linecap:round;stroke-linejoin:round;"/>
                </g>
                <g id="path51" serif:id="path5" transform="matrix(1,0,0,1,1.03511,-1)">
                    <path d="M167,237C165.379,204 220.379,196 228.379,226" style="fill:none;fill-rule:nonzero;stroke:rgb(34,254,0);stroke-width:15px;stroke-linecap:round;stroke-linejoin:round;"/>
                </g>
            </g>
            <g transform="matrix(1,0,0,1,566.283,0)">
                <g id="path52" serif:id="path5" transform="matrix(-1,0,0,1,508.379,-1)">
                    <path d="M167,237C165.379,204 220.379,196 228.379,226" style="fill:none;fill-rule:nonzero;stroke:rgb(34,254,0);stroke-width:15px;stroke-linecap:round;stroke-linejoin:round;"/>
                </g>
                <g id="path53" serif:id="path5" transform="matrix(1,0,0,1,1.03511,-1)">
                    <path d="M167,237C165.379,204 220.379,196 228.379,226" style="fill:none;fill-rule:nonzero;stroke:rgb(34,254,0);stroke-width:15px;stroke-linecap:round;stroke-linejoin:round;"/>
                </g>
            </g>
            <g transform="matrix(1,0,0,1,0.163264,0)">
                <g id="path54" serif:id="path5" transform="matrix(-1,0,0,1,1557.67,-1)">
                    <path d="M167,237C166.672,204 220.379,196 228.379,226" style="fill:none;fill-rule:nonzero;stroke:rgb(34,254,0);stroke-width:15px;stroke-linecap:round;stroke-linejoin:round;"/>
                </g>
                <g id="path55" serif:id="path5" transform="matrix(1,0,0,1,1050,-1)">
                    <path d="M167,237C166.672,204 220.379,196 228.379,226" style="fill:none;fill-rule:nonzero;stroke:rgb(34,254,0);stroke-width:15px;stroke-linecap:round;stroke-linejoin:round;"/>
                </g>
            </g>
            <g transform="matrix(-1,0,0,1,2049.5,-1)">
                <path d="M159.5,237.075C159.296,216.564 175.462,203.427 193.345,200.475C211.501,197.478 230.578,205.137 235.626,224.068C236.692,228.067 234.311,232.18 230.312,233.247C226.312,234.313 222.199,231.932 221.132,227.932C218.179,216.856 206.411,213.521 195.788,215.275C184.896,217.073 174.375,224.432 174.5,236.925C174.541,241.065 171.214,244.458 167.075,244.5C162.935,244.541 159.542,241.214 159.5,237.075Z" style="fill:rgb(34,254,0);"/>
            </g>
            <g transform="matrix(1,0,0,1,1541.83,-1)">
                <path d="M174.5,236.925C174.375,224.432 184.896,217.073 195.788,215.275C206.411,213.521 218.179,216.856 221.132,227.932C222.199,231.932 226.312,234.313 230.312,233.247C234.311,232.18 236.692,228.067 235.626,224.068C230.578,205.137 211.501,197.478 193.345,200.475C175.462,203.427 159.296,216.564 159.5,237.075C159.542,241.214 162.935,244.541 167.075,244.5C171.214,244.458 174.541,241.065 174.5,236.925Z" style="fill:rgb(34,254,0);"/>
            </g>
            <g transform="matrix(1,0,0,1,163.149,0)">
                <path d="M2291.91,318.661C2292.84,319.567 2293.24,320.89 2292.96,322.159C2292.95,322.166 2292.95,322.172 2292.95,322.179C2291.68,328.346 2292.2,334.591 2294.3,340.583C2297.73,350.365 2306.02,360.02 2319.68,366.507C2336.02,374.268 2357.54,376.059 2376.01,371.715C2385.29,369.564 2392.22,361.7 2393.18,352.165C2393.34,350.53 2393.32,348.909 2393.14,347.324C2398.75,347.848 2404.37,346.23 2408.85,342.784C2413.33,346.23 2418.95,347.848 2424.56,347.324C2424.38,348.909 2424.36,350.53 2424.53,352.165C2425.49,361.699 2432.41,369.564 2441.75,371.727C2460.16,376.059 2481.68,374.269 2498.02,366.507C2511.68,360.02 2519.97,350.365 2523.4,340.583C2525.5,334.591 2526.03,328.346 2524.75,322.179C2524.75,322.172 2524.75,322.166 2524.74,322.16C2524.46,320.89 2524.86,319.566 2525.79,318.66C2533.94,310.878 2545.56,309.602 2554.7,316.224C2566.09,324.472 2570.54,341.39 2565.7,356.071C2564.14,360.788 2566.71,365.881 2571.43,367.436C2576.15,368.992 2581.24,366.425 2582.8,361.707C2590.12,339.485 2582.5,314.13 2565.26,301.645C2561.66,299.036 2557.83,297.09 2553.9,295.79C2553.9,295.788 2553.89,295.786 2553.89,295.784C2553.5,295.662 2553.21,295.349 2553.12,294.958C2553.02,294.568 2553.14,294.156 2553.42,293.873C2553.43,293.87 2553.43,293.868 2553.43,293.865C2555.58,291.706 2557.59,289.519 2559.46,287.297C2559.46,287.294 2559.46,287.291 2559.46,287.289C2563.17,282.8 2568.3,279.708 2574.01,278.522C2574.01,278.522 2574.01,278.521 2574.02,278.52C2579.53,277.324 2585.21,277.687 2589.72,280.821C2598.19,286.708 2601.98,295.817 2602.88,308.085C2603.24,313.04 2607.55,316.768 2612.51,316.407C2617.46,316.045 2621.19,311.73 2620.83,306.776C2619.47,288.233 2612.79,274.937 2599.99,266.04C2593.11,261.261 2584.68,259.58 2576.21,260.228C2576.2,260.229 2576.2,260.229 2576.19,260.23C2575.76,260.268 2575.33,260.092 2575.05,259.758C2574.77,259.423 2574.67,258.973 2574.79,258.552C2574.79,258.545 2574.79,258.538 2574.79,258.531C2579.03,242.023 2576.22,224.71 2565.79,207.926C2556.28,192.605 2538.02,178.562 2516.06,167.271C2483.33,150.436 2442.39,139.684 2410.42,139.684C2377.09,139.684 2336.15,149.849 2303.35,166.139C2281.35,177.064 2263.01,190.757 2252.98,205.942C2241.61,223.135 2238.52,241.23 2242.98,258.552C2242.98,258.554 2242.98,258.557 2242.98,258.56C2243.1,258.986 2242.99,259.44 2242.71,259.776C2242.43,260.113 2241.99,260.29 2241.56,260.25C2241.55,260.25 2241.55,260.249 2241.54,260.249C2233.05,259.573 2224.61,261.251 2217.72,266.04C2204.91,274.937 2198.23,288.233 2196.88,306.776C2196.51,311.73 2200.24,316.045 2205.2,316.407C2210.15,316.768 2214.47,313.04 2214.83,308.085C2215.72,295.817 2219.52,286.708 2227.99,280.821C2232.21,277.885 2237.46,277.382 2242.64,278.284C2248.77,279.349 2254.3,282.596 2258.21,287.424C2259.98,289.659 2261.93,291.831 2264.01,293.964C2264.01,293.965 2264.01,293.966 2264.02,293.967C2264.3,294.255 2264.41,294.668 2264.32,295.059C2264.22,295.451 2263.93,295.765 2263.55,295.89C2263.54,295.891 2263.54,295.893 2263.53,295.894C2259.7,297.18 2255.97,299.096 2252.45,301.645C2235.21,314.13 2227.58,339.485 2234.91,361.707C2236.46,366.425 2241.56,368.992 2246.27,367.436C2250.99,365.881 2253.56,360.788 2252,356.071C2247.16,341.39 2251.61,324.472 2263,316.224C2272.15,309.602 2283.76,310.878 2291.91,318.661L2291.91,318.661ZM2372.73,345.931C2374.43,346.712 2375.45,348.492 2375.27,350.359C2375.08,352.227 2373.72,353.768 2371.89,354.192C2371.89,354.193 2371.89,354.193 2371.89,354.193C2357.3,357.623 2340.3,356.375 2327.4,350.248C2317.31,345.454 2311.36,338.459 2310.45,331.075C2309.86,326.266 2311.45,321.34 2315.36,316.847C2325.63,305.025 2348.58,299.492 2369.42,303.63C2384.78,306.68 2395.97,314.364 2399.34,323.578C2399.89,325.126 2399.52,326.853 2398.39,328.048C2397.27,329.24 2395.57,329.703 2394,329.25C2388.36,327.52 2381.06,325.389 2376.8,324.579C2363.66,322.075 2357.97,324.754 2355.69,326.567C2355.69,326.57 2355.68,326.573 2355.68,326.576C2354.25,327.735 2353.74,329.686 2354.41,331.398C2354.41,331.407 2354.42,331.416 2354.42,331.425C2355.53,334.094 2358.95,339.485 2369.86,344.62C2370.7,345.016 2371.68,345.461 2372.73,345.931L2372.73,345.931ZM2444.97,345.931C2446.03,345.461 2447,345.016 2447.84,344.62C2458.76,339.485 2462.17,334.094 2463.28,331.425C2463.29,331.416 2463.29,331.407 2463.29,331.398C2463.97,329.686 2463.45,327.735 2462.02,326.576C2462.02,326.573 2462.02,326.57 2462.01,326.567C2459.73,324.754 2454.05,322.075 2440.9,324.579C2436.65,325.389 2429.35,327.52 2423.71,329.247C2422.14,329.705 2420.43,329.243 2419.31,328.048C2418.18,326.853 2417.82,325.126 2418.37,323.578C2421.73,314.364 2432.92,306.68 2448.28,303.63C2469.13,299.492 2492.08,305.025 2502.35,316.847C2506.25,321.34 2507.84,326.266 2507.25,331.075C2506.34,338.459 2500.39,345.454 2490.3,350.248C2477.4,356.375 2460.4,357.623 2445.82,354.193C2445.81,354.193 2445.81,354.193 2445.81,354.192C2443.98,353.768 2442.62,352.227 2442.44,350.359C2442.25,348.492 2443.27,346.712 2444.97,345.931L2444.97,345.931ZM2511.47,300.623C2511.46,300.618 2511.46,300.614 2511.45,300.61C2496.48,287.768 2469.65,281.036 2444.78,285.975C2429.72,288.963 2417.88,295.69 2410.14,303.835C2410.13,303.844 2410.12,303.853 2410.11,303.863C2409.79,304.219 2409.33,304.422 2408.85,304.422C2408.37,304.422 2407.91,304.219 2407.59,303.863C2407.58,303.854 2407.58,303.845 2407.57,303.836C2399.82,295.69 2387.98,288.963 2372.93,285.975C2347.74,280.975 2320.56,287.937 2305.7,301.094C2305.7,301.098 2305.69,301.103 2305.69,301.107C2305.14,301.601 2304.35,301.693 2303.7,301.336C2263.68,278.939 2247.92,246.244 2267.99,215.866C2276.95,202.319 2292.6,190.35 2311.65,180.83C2340.44,166.45 2377.01,157.684 2410.33,157.684C2443.61,157.684 2479.84,166.935 2508.11,181.749C2526.82,191.556 2542.04,203.788 2550.5,217.42C2569.37,247.809 2553.5,279.028 2513.41,300.842C2512.78,301.182 2512.01,301.095 2511.47,300.623ZM2504.69,236.089C2504.9,214.777 2488.17,201.063 2469.59,197.995C2450.68,194.873 2430.87,202.963 2425.61,222.681C2424.33,227.481 2427.19,232.416 2431.99,233.696C2436.79,234.976 2441.72,232.118 2443,227.319C2445.75,217.026 2456.78,214.125 2466.65,215.755C2476.85,217.438 2486.8,224.218 2486.69,235.911C2486.64,240.878 2490.63,244.95 2495.6,245C2500.56,245.049 2504.64,241.056 2504.69,236.089ZM2331.02,235.911C2330.9,224.218 2340.86,217.438 2351.05,215.755C2360.92,214.125 2371.95,217.026 2374.7,227.319C2375.98,232.118 2380.91,234.976 2385.71,233.696C2390.51,232.416 2393.37,227.481 2392.09,222.681C2386.83,202.963 2367.03,194.873 2348.12,197.995C2329.53,201.063 2312.8,214.777 2313.02,236.089C2313.07,241.056 2317.14,245.049 2322.11,245C2327.07,244.95 2331.07,240.878 2331.02,235.911Z" style="fill:rgb(254,69,0);"/>
            </g>
        </g>
    </g>
    <g id="Artboard2" transform="matrix(1.31658,0,0,1.81638,-369.462,-532.032)">
        <rect x="1246" y="637" width="597" height="403" style="fill:rgb(255,224,224);"/>
        <g transform="matrix(0.759542,0,0,0.550546,-282.845,645.646)">
            <path d="M2291.91,318.661C2292.84,319.567 2293.24,320.89 2292.96,322.159C2292.95,322.166 2292.95,322.172 2292.95,322.179C2291.68,328.346 2292.2,334.591 2294.3,340.583C2297.73,350.365 2306.02,360.02 2319.68,366.507C2336.02,374.268 2357.54,376.059 2376.01,371.715C2385.29,369.564 2392.22,361.7 2393.18,352.165C2393.34,350.53 2393.32,348.909 2393.14,347.324C2398.75,347.848 2404.37,346.23 2408.85,342.784C2413.33,346.23 2418.95,347.848 2424.56,347.324C2424.38,348.909 2424.36,350.53 2424.53,352.165C2425.49,361.699 2432.41,369.564 2441.75,371.727C2460.16,376.059 2481.68,374.269 2498.02,366.507C2511.68,360.02 2519.97,350.365 2523.4,340.583C2525.5,334.591 2526.03,328.346 2524.75,322.179C2524.75,322.172 2524.75,322.166 2524.74,322.16C2524.46,320.89 2524.86,319.566 2525.79,318.66C2533.94,310.878 2545.56,309.602 2554.7,316.224C2566.09,324.472 2570.54,341.39 2565.7,356.071C2564.14,360.788 2566.71,365.881 2571.43,367.436C2576.15,368.992 2581.24,366.425 2582.8,361.707C2590.12,339.485 2582.5,314.13 2565.26,301.645C2561.66,299.036 2557.83,297.09 2553.9,295.79C2553.9,295.788 2553.89,295.786 2553.89,295.784C2553.5,295.662 2553.21,295.349 2553.12,294.958C2553.02,294.568 2553.14,294.156 2553.42,293.873C2553.43,293.87 2553.43,293.868 2553.43,293.865C2555.58,291.706 2557.59,289.519 2559.46,287.297C2559.46,287.294 2559.46,287.291 2559.46,287.289C2563.17,282.8 2568.3,279.708 2574.01,278.522C2574.01,278.522 2574.01,278.521 2574.02,278.52C2579.53,277.324 2585.21,277.687 2589.72,280.821C2598.19,286.708 2601.98,295.817 2602.88,308.085C2603.24,313.04 2607.55,316.768 2612.51,316.407C2617.46,316.045 2621.19,311.73 2620.83,306.776C2619.47,288.233 2612.79,274.937 2599.99,266.04C2593.11,261.261 2584.68,259.58 2576.21,260.228C2576.2,260.229 2576.2,260.229 2576.19,260.23C2575.76,260.268 2575.33,260.092 2575.05,259.758C2574.77,259.423 2574.67,258.973 2574.79,258.552C2574.79,258.545 2574.79,258.538 2574.79,258.531C2579.03,242.023 2576.22,224.71 2565.79,207.926C2556.28,192.605 2538.02,178.562 2516.06,167.271C2483.33,150.436 2442.39,139.684 2410.42,139.684C2377.09,139.684 2336.15,149.849 2303.35,166.139C2281.35,177.064 2263.01,190.757 2252.98,205.942C2241.61,223.135 2238.52,241.23 2242.98,258.552C2242.98,258.554 2242.98,258.557 2242.98,258.56C2243.1,258.986 2242.99,259.44 2242.71,259.776C2242.43,260.113 2241.99,260.29 2241.56,260.25C2241.55,260.25 2241.55,260.249 2241.54,260.249C2233.05,259.573 2224.61,261.251 2217.72,266.04C2204.91,274.937 2198.23,288.233 2196.88,306.776C2196.51,311.73 2200.24,316.045 2205.2,316.407C2210.15,316.768 2214.47,313.04 2214.83,308.085C2215.72,295.817 2219.52,286.708 2227.99,280.821C2232.21,277.885 2237.46,277.382 2242.64,278.284C2248.77,279.349 2254.3,282.596 2258.21,287.424C2259.98,289.659 2261.93,291.831 2264.01,293.964C2264.01,293.965 2264.01,293.966 2264.02,293.967C2264.3,294.255 2264.41,294.668 2264.32,295.059C2264.22,295.451 2263.93,295.765 2263.55,295.89C2263.54,295.891 2263.54,295.893 2263.53,295.894C2259.7,297.18 2255.97,299.096 2252.45,301.645C2235.21,314.13 2227.58,339.485 2234.91,361.707C2236.46,366.425 2241.56,368.992 2246.27,367.436C2250.99,365.881 2253.56,360.788 2252,356.071C2247.16,341.39 2251.61,324.472 2263,316.224C2272.15,309.602 2283.76,310.878 2291.91,318.661L2291.91,318.661ZM2372.73,345.931C2374.43,346.712 2375.45,348.492 2375.27,350.359C2375.08,352.227 2373.72,353.768 2371.89,354.192C2371.89,354.193 2371.89,354.193 2371.89,354.193C2357.3,357.623 2340.3,356.375 2327.4,350.248C2317.31,345.454 2311.36,338.459 2310.45,331.075C2309.86,326.266 2311.45,321.34 2315.36,316.847C2325.63,305.025 2348.58,299.492 2369.42,303.63C2384.78,306.68 2395.97,314.364 2399.34,323.578C2399.89,325.126 2399.52,326.853 2398.39,328.048C2397.27,329.24 2395.57,329.703 2394,329.25C2388.36,327.52 2381.06,325.389 2376.8,324.579C2363.66,322.075 2357.97,324.754 2355.69,326.567C2355.69,326.57 2355.68,326.573 2355.68,326.576C2354.25,327.735 2353.74,329.686 2354.41,331.398C2354.41,331.407 2354.42,331.416 2354.42,331.425C2355.53,334.094 2358.95,339.485 2369.86,344.62C2370.7,345.016 2371.68,345.461 2372.73,345.931L2372.73,345.931ZM2444.97,345.931C2446.03,345.461 2447,345.016 2447.84,344.62C2458.76,339.485 2462.17,334.094 2463.28,331.425C2463.29,331.416 2463.29,331.407 2463.29,331.398C2463.97,329.686 2463.45,327.735 2462.02,326.576C2462.02,326.573 2462.02,326.57 2462.01,326.567C2459.73,324.754 2454.05,322.075 2440.9,324.579C2436.65,325.389 2429.35,327.52 2423.71,329.247C2422.14,329.705 2420.43,329.243 2419.31,328.048C2418.18,326.853 2417.82,325.126 2418.37,323.578C2421.73,314.364 2432.92,306.68 2448.28,303.63C2469.13,299.492 2492.08,305.025 2502.35,316.847C2506.25,321.34 2507.84,326.266 2507.25,331.075C2506.34,338.459 2500.39,345.454 2490.3,350.248C2477.4,356.375 2460.4,357.623 2445.82,354.193C2445.81,354.193 2445.81,354.193 2445.81,354.192C2443.98,353.768 2442.62,352.227 2442.44,350.359C2442.25,348.492 2443.27,346.712 2444.97,345.931L2444.97,345.931ZM2511.47,300.623C2511.46,300.618 2511.46,300.614 2511.45,300.61C2496.48,287.768 2469.65,281.036 2444.78,285.975C2429.72,288.963 2417.88,295.69 2410.14,303.835C2410.13,303.844 2410.12,303.853 2410.11,303.863C2409.79,304.219 2409.33,304.422 2408.85,304.422C2408.37,304.422 2407.91,304.219 2407.59,303.863C2407.58,303.854 2407.58,303.845 2407.57,303.836C2399.82,295.69 2387.98,288.963 2372.93,285.975C2347.74,280.975 2320.56,287.937 2305.7,301.094C2305.7,301.098 2305.69,301.103 2305.69,301.107C2305.14,301.601 2304.35,301.693 2303.7,301.336C2263.68,278.939 2247.92,246.244 2267.99,215.866C2276.95,202.319 2292.6,190.35 2311.65,180.83C2340.44,166.45 2377.01,157.684 2410.33,157.684C2443.61,157.684 2479.84,166.935 2508.11,181.749C2526.82,191.556 2542.04,203.788 2550.5,217.42C2569.37,247.809 2553.5,279.028 2513.41,300.842C2512.78,301.182 2512.01,301.095 2511.47,300.623ZM2504.69,236.089C2504.9,214.777 2488.17,201.063 2469.59,197.995C2450.68,194.873 2430.87,202.963 2425.61,222.681C2424.33,227.481 2427.19,232.416 2431.99,233.696C2436.79,234.976 2441.72,232.118 2443,227.319C2445.75,217.026 2456.78,214.125 2466.65,215.755C2476.85,217.438 2486.8,224.218 2486.69,235.911C2486.64,240.878 2490.63,244.95 2495.6,245C2500.56,245.049 2504.64,241.056 2504.69,236.089ZM2331.02,235.911C2330.9,224.218 2340.86,217.438 2351.05,215.755C2360.92,214.125 2371.95,217.026 2374.7,227.319C2375.98,232.118 2380.91,234.976 2385.71,233.696C2390.51,232.416 2393.37,227.481 2392.09,222.681C2386.83,202.963 2367.03,194.873 2348.12,197.995C2329.53,201.063 2312.8,214.777 2313.02,236.089C2313.07,241.056 2317.14,245.049 2322.11,245C2327.07,244.95 2331.07,240.878 2331.02,235.911Z" style="fill:rgb(254,69,0);"/>
        </g>
        <g transform="matrix(7.53582,0,0,5.46227,-13440,-3684.03)">
            <path d="M1954.98,846.006C1954.98,846.438 1955.21,846.666 1955.64,846.666L1956.42,846.666C1956.85,846.666 1957.08,846.438 1957.08,846.006L1957.08,843.774L1958.06,843.774L1959.34,846.198C1959.52,846.522 1959.76,846.666 1960.12,846.666L1961.03,846.666C1961.54,846.666 1961.75,846.33 1961.48,845.874L1960.26,843.666C1960.06,843.306 1959.94,843.15 1959.94,843.15L1959.94,843.126C1960.79,842.694 1961.22,841.698 1961.22,840.786C1961.22,839.538 1960.61,838.662 1959.64,838.29C1959.26,838.146 1958.84,838.086 1957.97,838.086L1955.64,838.086C1955.21,838.086 1954.98,838.314 1954.98,838.746L1954.98,846.006ZM1957.08,841.974L1957.08,839.886L1957.79,839.886C1958.14,839.886 1958.39,839.922 1958.58,840.006C1958.98,840.162 1959.08,840.486 1959.08,840.918C1959.08,841.602 1958.66,841.974 1957.99,841.974L1957.08,841.974Z" style="fill:rgb(254,69,0);fill-rule:nonzero;"/>
            <path d="M1962.35,844.494C1962.35,846.234 1963.32,846.81 1964.54,846.81C1965.37,846.81 1966.14,846.402 1966.48,845.742L1966.5,845.742C1966.5,845.742 1966.49,845.838 1966.49,845.898L1966.49,846.006C1966.49,846.438 1966.7,846.666 1967.14,846.666L1967.81,846.666C1968.24,846.666 1968.47,846.438 1968.47,846.006L1968.47,841.146C1968.47,840.714 1968.24,840.486 1967.81,840.486L1967.05,840.486C1966.62,840.486 1966.39,840.714 1966.39,841.146L1966.39,843.222C1966.39,844.146 1965.97,844.926 1965.08,844.926C1964.65,844.926 1964.42,844.686 1964.42,844.11L1964.42,841.146C1964.42,840.714 1964.2,840.486 1963.76,840.486L1963.01,840.486C1962.58,840.486 1962.35,840.714 1962.35,841.146L1962.35,844.494Z" style="fill:rgb(254,69,0);fill-rule:nonzero;"/>
            <path d="M1969.81,846.246C1970.24,846.498 1970.94,846.81 1971.86,846.81C1973.45,846.81 1974.41,845.934 1974.41,844.782C1974.41,842.634 1971.52,842.994 1971.52,842.286C1971.52,842.118 1971.62,841.962 1972.07,841.962C1972.48,841.962 1972.84,842.094 1973.12,842.202C1973.53,842.358 1973.82,842.298 1974,841.914L1974.14,841.626C1974.32,841.254 1974.28,840.918 1973.9,840.738C1973.52,840.558 1972.93,840.342 1972.15,840.342C1970.72,840.342 1969.58,841.026 1969.58,842.298C1969.58,844.47 1972.48,844.122 1972.48,844.842C1972.48,845.034 1972.33,845.19 1971.91,845.19C1971.42,845.19 1971.04,844.998 1970.74,844.866C1970.33,844.674 1970.06,844.71 1969.82,845.058L1969.64,845.334C1969.42,845.694 1969.45,846.042 1969.81,846.246Z" style="fill:rgb(254,69,0);fill-rule:nonzero;"/>
            <path d="M1975.87,844.47C1975.87,846.306 1977.56,846.726 1978.48,846.726C1979.03,846.726 1979.33,846.558 1979.33,846.066L1979.33,845.526C1979.33,845.07 1979.15,844.926 1978.67,844.866C1978.3,844.818 1977.95,844.614 1977.95,844.086L1977.95,842.214L1978.6,842.214C1979.02,842.214 1979.24,841.986 1979.24,841.554L1979.24,841.254C1979.24,840.822 1979.02,840.594 1978.58,840.594L1977.95,840.594L1977.95,839.478C1977.95,839.046 1977.72,838.818 1977.29,838.818L1976.59,838.818C1976.16,838.818 1975.93,839.046 1975.93,839.478L1975.93,840.594L1975.7,840.594C1975.27,840.594 1975.04,840.822 1975.04,841.254L1975.04,841.554C1975.04,841.986 1975.27,842.214 1975.69,842.214L1975.87,842.214L1975.87,844.47Z" style="fill:rgb(254,69,0);fill-rule:nonzero;"/>
            <path d="M1979.93,847.254C1979.8,847.722 1980.01,847.998 1980.49,847.998L1980.7,847.998C1981.07,847.998 1981.32,847.842 1981.45,847.482L1982.29,845.442C1982.48,844.986 1982.27,844.674 1981.78,844.674L1981.21,844.674C1980.82,844.674 1980.58,844.854 1980.47,845.238L1979.93,847.254Z" style="fill:rgb(254,69,0);fill-rule:nonzero;"/>
            <path d="M1985.11,846.246C1985.54,846.498 1986.24,846.81 1987.16,846.81C1988.75,846.81 1989.71,845.934 1989.71,844.782C1989.71,842.634 1986.82,842.994 1986.82,842.286C1986.82,842.118 1986.92,841.962 1987.37,841.962C1987.78,841.962 1988.14,842.094 1988.42,842.202C1988.83,842.358 1989.12,842.298 1989.3,841.914L1989.44,841.626C1989.62,841.254 1989.58,840.918 1989.2,840.738C1988.82,840.558 1988.23,840.342 1987.45,840.342C1986.02,840.342 1984.88,841.026 1984.88,842.298C1984.88,844.47 1987.78,844.122 1987.78,844.842C1987.78,845.034 1987.63,845.19 1987.21,845.19C1986.72,845.19 1986.34,844.998 1986.04,844.866C1985.63,844.674 1985.36,844.71 1985.12,845.058L1984.94,845.334C1984.72,845.694 1984.75,846.042 1985.11,846.246Z" style="fill:rgb(254,69,0);fill-rule:nonzero;"/>
            <path d="M1991.44,839.706L1992.14,839.706C1992.58,839.706 1992.8,839.478 1992.8,839.046L1992.8,838.746C1992.8,838.314 1992.58,838.086 1992.14,838.086L1991.44,838.086C1991,838.086 1990.78,838.314 1990.78,838.746L1990.78,839.046C1990.78,839.478 1991,839.706 1991.44,839.706ZM1990.75,846.006C1990.75,846.438 1990.98,846.666 1991.41,846.666L1992.17,846.666C1992.6,846.666 1992.83,846.438 1992.83,846.006L1992.83,841.146C1992.83,840.714 1992.6,840.486 1992.17,840.486L1991.41,840.486C1990.98,840.486 1990.75,840.714 1990.75,841.146L1990.75,846.006Z" style="fill:rgb(254,69,0);fill-rule:nonzero;"/>
            <path d="M1994.17,846.006C1994.17,846.438 1994.4,846.666 1994.83,846.666L1995.59,846.666C1996.02,846.666 1996.25,846.438 1996.25,846.006L1996.25,844.05C1996.25,843.198 1996.49,842.226 1997.44,842.226C1997.83,842.226 1997.92,842.55 1997.92,843.006L1997.92,846.006C1997.92,846.438 1998.14,846.666 1998.58,846.666L1999.33,846.666C1999.76,846.666 1999.99,846.438 1999.99,846.006L1999.99,844.05C1999.99,843.126 2000.28,842.226 2001.18,842.226C2001.58,842.226 2001.66,842.55 2001.66,843.006L2001.66,846.006C2001.66,846.438 2001.89,846.666 2002.32,846.666L2003.08,846.666C2003.51,846.666 2003.74,846.438 2003.74,846.006L2003.74,842.658C2003.74,840.954 2002.86,840.342 2001.73,840.342C2000.81,840.342 2000.08,840.87 1999.75,841.386L1999.73,841.386C1999.4,840.69 1998.78,840.342 1998,840.342C1997.03,840.342 1996.45,840.978 1996.16,841.41L1996.14,841.41C1996.14,841.41 1996.15,841.314 1996.15,841.254L1996.15,841.146C1996.15,840.714 1995.94,840.486 1995.5,840.486L1994.83,840.486C1994.4,840.486 1994.17,840.714 1994.17,841.146L1994.17,846.006Z" style="fill:rgb(254,69,0);fill-rule:nonzero;"/>
            <path d="M2005.01,848.406C2005.01,848.838 2005.24,849.066 2005.67,849.066L2006.42,849.066C2006.86,849.066 2007.08,848.838 2007.08,848.406L2007.08,846.63C2007.08,846.318 2007.06,846.102 2007.06,846.102L2007.08,846.102C2007.08,846.102 2007.54,846.81 2008.66,846.81C2010.3,846.81 2011.54,845.538 2011.54,843.582C2011.54,841.662 2010.43,840.342 2008.75,840.342C2007.44,840.342 2006.88,841.278 2006.88,841.278L2006.86,841.278C2006.86,841.278 2006.87,841.218 2006.87,841.158L2006.87,841.026C2006.87,840.714 2006.64,840.486 2006.21,840.486L2005.67,840.486C2005.24,840.486 2005.01,840.714 2005.01,841.146L2005.01,848.406ZM2007.02,843.618C2007.02,842.55 2007.61,842.094 2008.24,842.094C2008.96,842.094 2009.45,842.694 2009.45,843.618C2009.45,844.566 2008.88,845.094 2008.24,845.094C2007.42,845.094 2007.02,844.362 2007.02,843.618Z" style="fill:rgb(254,69,0);fill-rule:nonzero;"/>
            <path d="M2012.53,844.386C2012.53,846.462 2013.7,846.726 2014.76,846.726C2015.24,846.726 2015.44,846.462 2015.44,846.054L2015.44,845.466C2015.44,845.106 2015.24,844.938 2014.96,844.902C2014.76,844.878 2014.61,844.758 2014.61,844.29L2014.61,838.746C2014.61,838.314 2014.38,838.086 2013.95,838.086L2013.19,838.086C2012.76,838.086 2012.53,838.314 2012.53,838.746L2012.53,844.386Z" style="fill:rgb(254,69,0);fill-rule:nonzero;"/>
            <path d="M2015.96,847.818L2015.81,848.166C2015.64,848.55 2015.74,848.898 2016.13,849.03C2016.37,849.114 2016.67,849.186 2017,849.186C2017.98,849.186 2019.06,848.706 2019.58,847.326L2021.83,841.242C2022,840.786 2021.78,840.486 2021.3,840.486L2020.43,840.486C2020.03,840.486 2019.79,840.666 2019.68,841.05L2019.06,843.366C2018.98,843.702 2018.86,844.29 2018.86,844.29L2018.83,844.29C2018.83,844.29 2018.71,843.666 2018.6,843.33L2017.87,841.026C2017.75,840.666 2017.51,840.486 2017.12,840.486L2016.18,840.486C2015.68,840.486 2015.47,840.798 2015.68,841.254L2017.97,846.546L2017.85,846.834C2017.7,847.194 2017.37,847.494 2017,847.494C2016.85,847.494 2016.73,847.458 2016.64,847.434C2016.38,847.386 2016.13,847.446 2015.96,847.818Z" style="fill:rgb(254,69,0);fill-rule:nonzero;"/>
        </g>
    </g>
    <g transform="matrix(1,0,0,1,-162.949,374.367)">
        <path d="M2502,1444.61C2502,1438.35 2499.51,1432.34 2495.09,1427.91C2490.66,1423.49 2484.66,1421 2478.39,1421L2447.61,1421C2441.35,1421 2435.34,1423.49 2430.91,1427.91C2426.49,1432.34 2424,1438.35 2424,1444.61L2424,1475.39C2424,1481.65 2426.49,1487.66 2430.91,1492.09C2435.34,1496.51 2441.35,1499 2447.61,1499L2478.39,1499C2484.66,1499 2490.66,1496.51 2495.09,1492.09C2499.51,1487.66 2502,1481.65 2502,1475.39L2502,1444.61Z" style="fill:rgb(179,160,160);"/>
    </g>
    <g transform="matrix(1,0,0,1,-51.4375,374.367)">
        <path d="M2502,1444.61C2502,1438.35 2499.51,1432.34 2495.09,1427.91C2490.66,1423.49 2484.66,1421 2478.39,1421L2447.61,1421C2441.35,1421 2435.34,1423.49 2430.91,1427.91C2426.49,1432.34 2424,1438.35 2424,1444.61L2424,1475.39C2424,1481.65 2426.49,1487.66 2430.91,1492.09C2435.34,1496.51 2441.35,1499 2447.61,1499L2478.39,1499C2484.66,1499 2490.66,1496.51 2495.09,1492.09C2499.51,1487.66 2502,1481.65 2502,1475.39L2502,1444.61Z" style="fill:rgb(223,214,214);"/>
    </g>
    <g transform="matrix(1,0,0,1,-274.461,374.367)">
        <path d="M2502,1444.61C2502,1438.35 2499.51,1432.34 2495.09,1427.91C2490.66,1423.49 2484.66,1421 2478.39,1421L2447.61,1421C2441.35,1421 2435.34,1423.49 2430.91,1427.91C2426.49,1432.34 2424,1438.35 2424,1444.61L2424,1475.39C2424,1481.65 2426.49,1487.66 2430.91,1492.09C2435.34,1496.51 2441.35,1499 2447.61,1499L2478.39,1499C2484.66,1499 2490.66,1496.51 2495.09,1492.09C2499.51,1487.66 2502,1481.65 2502,1475.39L2502,1444.61Z" style="fill:rgb(124,99,99);"/>
    </g>
    <g transform="matrix(1,0,0,1,-162.949,259.838)">
        <path d="M2502,1444.61C2502,1438.35 2499.51,1432.34 2495.09,1427.91C2490.66,1423.49 2484.66,1421 2478.39,1421L2447.61,1421C2441.35,1421 2435.34,1423.49 2430.91,1427.91C2426.49,1432.34 2424,1438.35 2424,1444.61L2424,1475.39C2424,1481.65 2426.49,1487.66 2430.91,1492.09C2435.34,1496.51 2441.35,1499 2447.61,1499L2478.39,1499C2484.66,1499 2490.66,1496.51 2495.09,1492.09C2499.51,1487.66 2502,1481.65 2502,1475.39L2502,1444.61Z" style="fill:rgb(255,201,201);"/>
    </g>
    <g transform="matrix(1,0,0,1,-51.4375,259.838)">
        <path d="M2502,1444.61C2502,1438.35 2499.51,1432.34 2495.09,1427.91C2490.66,1423.49 2484.66,1421 2478.39,1421L2447.61,1421C2441.35,1421 2435.34,1423.49 2430.91,1427.91C2426.49,1432.34 2424,1438.35 2424,1444.61L2424,1475.39C2424,1481.65 2426.49,1487.66 2430.91,1492.09C2435.34,1496.51 2441.35,1499 2447.61,1499L2478.39,1499C2484.66,1499 2490.66,1496.51 2495.09,1492.09C2499.51,1487.66 2502,1481.65 2502,1475.39L2502,1444.61Z" style="fill:rgb(255,224,224);"/>
    </g>
    <g transform="matrix(1,0,0,1,68.7292,148)">
        <path d="M2502,1444.61C2502,1438.35 2499.51,1432.34 2495.09,1427.91C2490.66,1423.49 2484.66,1421 2478.39,1421L2447.61,1421C2441.35,1421 2435.34,1423.49 2430.91,1427.91C2426.49,1432.34 2424,1438.35 2424,1444.61L2424,1475.39C2424,1481.65 2426.49,1487.66 2430.91,1492.09C2435.34,1496.51 2441.35,1499 2447.61,1499L2478.39,1499C2484.66,1499 2490.66,1496.51 2495.09,1492.09C2499.51,1487.66 2502,1481.65 2502,1475.39L2502,1444.61Z" style="fill:rgb(255,219,206);"/>
    </g>
    <g transform="matrix(1,0,0,1,-274.461,259.838)">
        <path d="M2502,1444.61C2502,1438.35 2499.51,1432.34 2495.09,1427.91C2490.66,1423.49 2484.66,1421 2478.39,1421L2447.61,1421C2441.35,1421 2435.34,1423.49 2430.91,1427.91C2426.49,1432.34 2424,1438.35 2424,1444.61L2424,1475.39C2424,1481.65 2426.49,1487.66 2430.91,1492.09C2435.34,1496.51 2441.35,1499 2447.61,1499L2478.39,1499C2484.66,1499 2490.66,1496.51 2495.09,1492.09C2499.51,1487.66 2502,1481.65 2502,1475.39L2502,1444.61Z" style="fill:rgb(255,153,153);"/>
    </g>
    <g transform="matrix(1,0,0,1,-280,145.309)">
        <path d="M2502,1444.61C2502,1438.35 2499.51,1432.34 2495.09,1427.91C2490.66,1423.49 2484.66,1421 2478.39,1421L2447.61,1421C2441.35,1421 2435.34,1423.49 2430.91,1427.91C2426.49,1432.34 2424,1438.35 2424,1444.61L2424,1475.39C2424,1481.65 2426.49,1487.66 2430.91,1492.09C2435.34,1496.51 2441.35,1499 2447.61,1499L2478.39,1499C2484.66,1499 2490.66,1496.51 2495.09,1492.09C2499.51,1487.66 2502,1481.65 2502,1475.39L2502,1444.61Z" style="fill:rgb(254,69,0);"/>
    </g>
    <g transform="matrix(1,0,0,1,-166.602,145.309)">
        <path d="M2502,1444.61C2502,1438.35 2499.51,1432.34 2495.09,1427.91C2490.66,1423.49 2484.66,1421 2478.39,1421L2447.61,1421C2441.35,1421 2435.34,1423.49 2430.91,1427.91C2426.49,1432.34 2424,1438.35 2424,1444.61L2424,1475.39C2424,1481.65 2426.49,1487.66 2430.91,1492.09C2435.34,1496.51 2441.35,1499 2447.61,1499L2478.39,1499C2484.66,1499 2490.66,1496.51 2495.09,1492.09C2499.51,1487.66 2502,1481.65 2502,1475.39L2502,1444.61Z" style="fill:rgb(255,110,58);"/>
    </g>
    <g transform="matrix(1,0,0,1,-53.5937,145.309)">
        <path d="M2502,1444.61C2502,1438.35 2499.51,1432.34 2495.09,1427.91C2490.66,1423.49 2484.66,1421 2478.39,1421L2447.61,1421C2441.35,1421 2435.34,1423.49 2430.91,1427.91C2426.49,1432.34 2424,1438.35 2424,1444.61L2424,1475.39C2424,1481.65 2426.49,1487.66 2430.91,1492.09C2435.34,1496.51 2441.35,1499 2447.61,1499L2478.39,1499C2484.66,1499 2490.66,1496.51 2495.09,1492.09C2499.51,1487.66 2502,1481.65 2502,1475.39L2502,1444.61Z" style="fill:rgb(255,154,120);"/>
    </g>
    <g id="Artboard21" serif:id="Artboard2" transform="matrix(1.31658,0,0,1.81638,467.108,-532.032)">
        <rect x="1246" y="637" width="597" height="403" style="fill:rgb(179,160,160);"/>
        <g transform="matrix(1,0,0,1.21721,-14.9296,-148.612)">
            <g transform="matrix(0.759542,0,0,0.452301,-267.916,652.521)">
                <path d="M2291.91,318.661C2292.84,319.567 2293.24,320.89 2292.96,322.159C2292.95,322.166 2292.95,322.172 2292.95,322.179C2291.68,328.346 2292.2,334.591 2294.3,340.583C2297.73,350.365 2306.02,360.02 2319.68,366.507C2336.02,374.268 2357.54,376.059 2376.01,371.715C2385.29,369.564 2392.22,361.7 2393.18,352.165C2393.34,350.53 2393.32,348.909 2393.14,347.324C2398.75,347.848 2404.37,346.23 2408.85,342.784C2413.33,346.23 2418.95,347.848 2424.56,347.324C2424.38,348.909 2424.36,350.53 2424.53,352.165C2425.49,361.699 2432.41,369.564 2441.75,371.727C2460.16,376.059 2481.68,374.269 2498.02,366.507C2511.68,360.02 2519.97,350.365 2523.4,340.583C2525.5,334.591 2526.03,328.346 2524.75,322.179C2524.75,322.172 2524.75,322.166 2524.74,322.16C2524.46,320.89 2524.86,319.566 2525.79,318.66C2533.94,310.878 2545.56,309.602 2554.7,316.224C2566.09,324.472 2570.54,341.39 2565.7,356.071C2564.14,360.788 2566.71,365.881 2571.43,367.436C2576.15,368.992 2581.24,366.425 2582.8,361.707C2590.12,339.485 2582.5,314.13 2565.26,301.645C2561.66,299.036 2557.83,297.09 2553.9,295.79C2553.9,295.788 2553.89,295.786 2553.89,295.784C2553.5,295.662 2553.21,295.349 2553.12,294.958C2553.02,294.568 2553.14,294.156 2553.42,293.873C2553.43,293.87 2553.43,293.868 2553.43,293.865C2555.58,291.706 2557.59,289.519 2559.46,287.297C2559.46,287.294 2559.46,287.291 2559.46,287.289C2563.17,282.8 2568.3,279.708 2574.01,278.522C2574.01,278.522 2574.01,278.521 2574.02,278.52C2579.53,277.324 2585.21,277.687 2589.72,280.821C2598.19,286.708 2601.98,295.817 2602.88,308.085C2603.24,313.04 2607.55,316.768 2612.51,316.407C2617.46,316.045 2621.19,311.73 2620.83,306.776C2619.47,288.233 2612.79,274.937 2599.99,266.04C2593.11,261.261 2584.68,259.58 2576.21,260.228C2576.2,260.229 2576.2,260.229 2576.19,260.23C2575.76,260.268 2575.33,260.092 2575.05,259.758C2574.77,259.423 2574.67,258.973 2574.79,258.552C2574.79,258.545 2574.79,258.538 2574.79,258.531C2579.03,242.023 2576.22,224.71 2565.79,207.926C2556.28,192.605 2538.02,178.562 2516.06,167.271C2483.33,150.436 2442.39,139.684 2410.42,139.684C2377.09,139.684 2336.15,149.849 2303.35,166.139C2281.35,177.064 2263.01,190.757 2252.98,205.942C2241.61,223.135 2238.52,241.23 2242.98,258.552C2242.98,258.554 2242.98,258.557 2242.98,258.56C2243.1,258.986 2242.99,259.44 2242.71,259.776C2242.43,260.113 2241.99,260.29 2241.56,260.25C2241.55,260.25 2241.55,260.249 2241.54,260.249C2233.05,259.573 2224.61,261.251 2217.72,266.04C2204.91,274.937 2198.23,288.233 2196.88,306.776C2196.51,311.73 2200.24,316.045 2205.2,316.407C2210.15,316.768 2214.47,313.04 2214.83,308.085C2215.72,295.817 2219.52,286.708 2227.99,280.821C2232.21,277.885 2237.46,277.382 2242.64,278.284C2248.77,279.349 2254.3,282.596 2258.21,287.424C2259.98,289.659 2261.93,291.831 2264.01,293.964C2264.01,293.965 2264.01,293.966 2264.02,293.967C2264.3,294.255 2264.41,294.668 2264.32,295.059C2264.22,295.451 2263.93,295.765 2263.55,295.89C2263.54,295.891 2263.54,295.893 2263.53,295.894C2259.7,297.18 2255.97,299.096 2252.45,301.645C2235.21,314.13 2227.58,339.485 2234.91,361.707C2236.46,366.425 2241.56,368.992 2246.27,367.436C2250.99,365.881 2253.56,360.788 2252,356.071C2247.16,341.39 2251.61,324.472 2263,316.224C2272.15,309.602 2283.76,310.878 2291.91,318.661L2291.91,318.661ZM2372.73,345.931C2374.43,346.712 2375.45,348.492 2375.27,350.359C2375.08,352.227 2373.72,353.768 2371.89,354.192C2371.89,354.193 2371.89,354.193 2371.89,354.193C2357.3,357.623 2340.3,356.375 2327.4,350.248C2317.31,345.454 2311.36,338.459 2310.45,331.075C2309.86,326.266 2311.45,321.34 2315.36,316.847C2325.63,305.025 2348.58,299.492 2369.42,303.63C2384.78,306.68 2395.97,314.364 2399.34,323.578C2399.89,325.126 2399.52,326.853 2398.39,328.048C2397.27,329.24 2395.57,329.703 2394,329.25C2388.36,327.52 2381.06,325.389 2376.8,324.579C2363.66,322.075 2357.97,324.754 2355.69,326.567C2355.69,326.57 2355.68,326.573 2355.68,326.576C2354.25,327.735 2353.74,329.686 2354.41,331.398C2354.41,331.407 2354.42,331.416 2354.42,331.425C2355.53,334.094 2358.95,339.485 2369.86,344.62C2370.7,345.016 2371.68,345.461 2372.73,345.931L2372.73,345.931ZM2444.97,345.931C2446.03,345.461 2447,345.016 2447.84,344.62C2458.76,339.485 2462.17,334.094 2463.28,331.425C2463.29,331.416 2463.29,331.407 2463.29,331.398C2463.97,329.686 2463.45,327.735 2462.02,326.576C2462.02,326.573 2462.02,326.57 2462.01,326.567C2459.73,324.754 2454.05,322.075 2440.9,324.579C2436.65,325.389 2429.35,327.52 2423.71,329.247C2422.14,329.705 2420.43,329.243 2419.31,328.048C2418.18,326.853 2417.82,325.126 2418.37,323.578C2421.73,314.364 2432.92,306.68 2448.28,303.63C2469.13,299.492 2492.08,305.025 2502.35,316.847C2506.25,321.34 2507.84,326.266 2507.25,331.075C2506.34,338.459 2500.39,345.454 2490.3,350.248C2477.4,356.375 2460.4,357.623 2445.82,354.193C2445.81,354.193 2445.81,354.193 2445.81,354.192C2443.98,353.768 2442.62,352.227 2442.44,350.359C2442.25,348.492 2443.27,346.712 2444.97,345.931L2444.97,345.931ZM2511.47,300.623C2511.46,300.618 2511.46,300.614 2511.45,300.61C2496.48,287.768 2469.65,281.036 2444.78,285.975C2429.72,288.963 2417.88,295.69 2410.14,303.835C2410.13,303.844 2410.12,303.853 2410.11,303.863C2409.79,304.219 2409.33,304.422 2408.85,304.422C2408.37,304.422 2407.91,304.219 2407.59,303.863C2407.58,303.854 2407.58,303.845 2407.57,303.836C2399.82,295.69 2387.98,288.963 2372.93,285.975C2347.74,280.975 2320.56,287.937 2305.7,301.094C2305.7,301.098 2305.69,301.103 2305.69,301.107C2305.14,301.601 2304.35,301.693 2303.7,301.336C2263.68,278.939 2247.92,246.244 2267.99,215.866C2276.95,202.319 2292.6,190.35 2311.65,180.83C2340.44,166.45 2377.01,157.684 2410.33,157.684C2443.61,157.684 2479.84,166.935 2508.11,181.749C2526.82,191.556 2542.04,203.788 2550.5,217.42C2569.37,247.809 2553.5,279.028 2513.41,300.842C2512.78,301.182 2512.01,301.095 2511.47,300.623ZM2504.69,236.089C2504.9,214.777 2488.17,201.063 2469.59,197.995C2450.68,194.873 2430.87,202.963 2425.61,222.681C2424.33,227.481 2427.19,232.416 2431.99,233.696C2436.79,234.976 2441.72,232.118 2443,227.319C2445.75,217.026 2456.78,214.125 2466.65,215.755C2476.85,217.438 2486.8,224.218 2486.69,235.911C2486.64,240.878 2490.63,244.95 2495.6,245C2500.56,245.049 2504.64,241.056 2504.69,236.089ZM2331.02,235.911C2330.9,224.218 2340.86,217.438 2351.05,215.755C2360.92,214.125 2371.95,217.026 2374.7,227.319C2375.98,232.118 2380.91,234.976 2385.71,233.696C2390.51,232.416 2393.37,227.481 2392.09,222.681C2386.83,202.963 2367.03,194.873 2348.12,197.995C2329.53,201.063 2312.8,214.777 2313.02,236.089C2313.07,241.056 2317.14,245.049 2322.11,245C2327.07,244.95 2331.07,240.878 2331.02,235.911Z" style="fill:white;"/>
            </g>
            <g transform="matrix(7.53582,0,0,4.48752,-13425.5,-2904.52)">
                <path d="M1954.98,846.006C1954.98,846.438 1955.21,846.666 1955.64,846.666L1956.42,846.666C1956.85,846.666 1957.08,846.438 1957.08,846.006L1957.08,843.774L1958.06,843.774L1959.34,846.198C1959.52,846.522 1959.76,846.666 1960.12,846.666L1961.03,846.666C1961.54,846.666 1961.75,846.33 1961.48,845.874L1960.26,843.666C1960.06,843.306 1959.94,843.15 1959.94,843.15L1959.94,843.126C1960.79,842.694 1961.22,841.698 1961.22,840.786C1961.22,839.538 1960.61,838.662 1959.64,838.29C1959.26,838.146 1958.84,838.086 1957.97,838.086L1955.64,838.086C1955.21,838.086 1954.98,838.314 1954.98,838.746L1954.98,846.006ZM1957.08,841.974L1957.08,839.886L1957.79,839.886C1958.14,839.886 1958.39,839.922 1958.58,840.006C1958.98,840.162 1959.08,840.486 1959.08,840.918C1959.08,841.602 1958.66,841.974 1957.99,841.974L1957.08,841.974Z" style="fill:white;fill-rule:nonzero;"/>
                <path d="M1962.35,844.494C1962.35,846.234 1963.32,846.81 1964.54,846.81C1965.37,846.81 1966.14,846.402 1966.48,845.742L1966.5,845.742C1966.5,845.742 1966.49,845.838 1966.49,845.898L1966.49,846.006C1966.49,846.438 1966.7,846.666 1967.14,846.666L1967.81,846.666C1968.24,846.666 1968.47,846.438 1968.47,846.006L1968.47,841.146C1968.47,840.714 1968.24,840.486 1967.81,840.486L1967.05,840.486C1966.62,840.486 1966.39,840.714 1966.39,841.146L1966.39,843.222C1966.39,844.146 1965.97,844.926 1965.08,844.926C1964.65,844.926 1964.42,844.686 1964.42,844.11L1964.42,841.146C1964.42,840.714 1964.2,840.486 1963.76,840.486L1963.01,840.486C1962.58,840.486 1962.35,840.714 1962.35,841.146L1962.35,844.494Z" style="fill:white;fill-rule:nonzero;"/>
                <path d="M1969.81,846.246C1970.24,846.498 1970.94,846.81 1971.86,846.81C1973.45,846.81 1974.41,845.934 1974.41,844.782C1974.41,842.634 1971.52,842.994 1971.52,842.286C1971.52,842.118 1971.62,841.962 1972.07,841.962C1972.48,841.962 1972.84,842.094 1973.12,842.202C1973.53,842.358 1973.82,842.298 1974,841.914L1974.14,841.626C1974.32,841.254 1974.28,840.918 1973.9,840.738C1973.52,840.558 1972.93,840.342 1972.15,840.342C1970.72,840.342 1969.58,841.026 1969.58,842.298C1969.58,844.47 1972.48,844.122 1972.48,844.842C1972.48,845.034 1972.33,845.19 1971.91,845.19C1971.42,845.19 1971.04,844.998 1970.74,844.866C1970.33,844.674 1970.06,844.71 1969.82,845.058L1969.64,845.334C1969.42,845.694 1969.45,846.042 1969.81,846.246Z" style="fill:white;fill-rule:nonzero;"/>
                <path d="M1975.87,844.47C1975.87,846.306 1977.56,846.726 1978.48,846.726C1979.03,846.726 1979.33,846.558 1979.33,846.066L1979.33,845.526C1979.33,845.07 1979.15,844.926 1978.67,844.866C1978.3,844.818 1977.95,844.614 1977.95,844.086L1977.95,842.214L1978.6,842.214C1979.02,842.214 1979.24,841.986 1979.24,841.554L1979.24,841.254C1979.24,840.822 1979.02,840.594 1978.58,840.594L1977.95,840.594L1977.95,839.478C1977.95,839.046 1977.72,838.818 1977.29,838.818L1976.59,838.818C1976.16,838.818 1975.93,839.046 1975.93,839.478L1975.93,840.594L1975.7,840.594C1975.27,840.594 1975.04,840.822 1975.04,841.254L1975.04,841.554C1975.04,841.986 1975.27,842.214 1975.69,842.214L1975.87,842.214L1975.87,844.47Z" style="fill:white;fill-rule:nonzero;"/>
                <path d="M1979.93,847.254C1979.8,847.722 1980.01,847.998 1980.49,847.998L1980.7,847.998C1981.07,847.998 1981.32,847.842 1981.45,847.482L1982.29,845.442C1982.48,844.986 1982.27,844.674 1981.78,844.674L1981.21,844.674C1980.82,844.674 1980.58,844.854 1980.47,845.238L1979.93,847.254Z" style="fill:white;fill-rule:nonzero;"/>
                <path d="M1985.23,846.246C1985.66,846.498 1986.36,846.81 1987.28,846.81C1988.87,846.81 1989.83,845.934 1989.83,844.782C1989.83,842.634 1986.94,842.994 1986.94,842.286C1986.94,842.118 1987.04,841.962 1987.49,841.962C1987.9,841.962 1988.26,842.094 1988.54,842.202C1988.95,842.358 1989.24,842.298 1989.42,841.914L1989.56,841.626C1989.74,841.254 1989.7,840.918 1989.32,840.738C1988.94,840.558 1988.35,840.342 1987.57,840.342C1986.14,840.342 1985,841.026 1985,842.298C1985,844.47 1987.9,844.122 1987.9,844.842C1987.9,845.034 1987.75,845.19 1987.33,845.19C1986.84,845.19 1986.46,844.998 1986.16,844.866C1985.75,844.674 1985.48,844.71 1985.24,845.058L1985.06,845.334C1984.84,845.694 1984.87,846.042 1985.23,846.246Z" style="fill:white;fill-rule:nonzero;"/>
                <path d="M1991.56,839.706L1992.26,839.706C1992.7,839.706 1992.92,839.478 1992.92,839.046L1992.92,838.746C1992.92,838.314 1992.7,838.086 1992.26,838.086L1991.56,838.086C1991.12,838.086 1990.9,838.314 1990.9,838.746L1990.9,839.046C1990.9,839.478 1991.12,839.706 1991.56,839.706ZM1990.87,846.006C1990.87,846.438 1991.1,846.666 1991.53,846.666L1992.29,846.666C1992.72,846.666 1992.95,846.438 1992.95,846.006L1992.95,841.146C1992.95,840.714 1992.72,840.486 1992.29,840.486L1991.53,840.486C1991.1,840.486 1990.87,840.714 1990.87,841.146L1990.87,846.006Z" style="fill:white;fill-rule:nonzero;"/>
                <path d="M1994.29,846.006C1994.29,846.438 1994.52,846.666 1994.95,846.666L1995.71,846.666C1996.14,846.666 1996.37,846.438 1996.37,846.006L1996.37,844.05C1996.37,843.198 1996.61,842.226 1997.56,842.226C1997.95,842.226 1998.04,842.55 1998.04,843.006L1998.04,846.006C1998.04,846.438 1998.26,846.666 1998.7,846.666L1999.45,846.666C1999.88,846.666 2000.11,846.438 2000.11,846.006L2000.11,844.05C2000.11,843.126 2000.4,842.226 2001.3,842.226C2001.7,842.226 2001.78,842.55 2001.78,843.006L2001.78,846.006C2001.78,846.438 2002.01,846.666 2002.44,846.666L2003.2,846.666C2003.63,846.666 2003.86,846.438 2003.86,846.006L2003.86,842.658C2003.86,840.954 2002.98,840.342 2001.85,840.342C2000.93,840.342 2000.2,840.87 1999.87,841.386L1999.85,841.386C1999.52,840.69 1998.9,840.342 1998.12,840.342C1997.15,840.342 1996.57,840.978 1996.28,841.41L1996.26,841.41C1996.26,841.41 1996.27,841.314 1996.27,841.254L1996.27,841.146C1996.27,840.714 1996.06,840.486 1995.62,840.486L1994.95,840.486C1994.52,840.486 1994.29,840.714 1994.29,841.146L1994.29,846.006Z" style="fill:white;fill-rule:nonzero;"/>
                <path d="M2005.13,848.406C2005.13,848.838 2005.36,849.066 2005.79,849.066L2006.54,849.066C2006.98,849.066 2007.2,848.838 2007.2,848.406L2007.2,846.63C2007.2,846.318 2007.18,846.102 2007.18,846.102L2007.2,846.102C2007.2,846.102 2007.66,846.81 2008.78,846.81C2010.42,846.81 2011.66,845.538 2011.66,843.582C2011.66,841.662 2010.55,840.342 2008.87,840.342C2007.56,840.342 2007,841.278 2007,841.278L2006.98,841.278C2006.98,841.278 2006.99,841.218 2006.99,841.158L2006.99,841.026C2006.99,840.714 2006.76,840.486 2006.33,840.486L2005.79,840.486C2005.36,840.486 2005.13,840.714 2005.13,841.146L2005.13,848.406ZM2007.14,843.618C2007.14,842.55 2007.73,842.094 2008.36,842.094C2009.08,842.094 2009.57,842.694 2009.57,843.618C2009.57,844.566 2009,845.094 2008.36,845.094C2007.54,845.094 2007.14,844.362 2007.14,843.618Z" style="fill:white;fill-rule:nonzero;"/>
                <path d="M2012.65,844.386C2012.65,846.462 2013.82,846.726 2014.88,846.726C2015.36,846.726 2015.56,846.462 2015.56,846.054L2015.56,845.466C2015.56,845.106 2015.36,844.938 2015.08,844.902C2014.88,844.878 2014.73,844.758 2014.73,844.29L2014.73,838.746C2014.73,838.314 2014.5,838.086 2014.07,838.086L2013.31,838.086C2012.88,838.086 2012.65,838.314 2012.65,838.746L2012.65,844.386Z" style="fill:white;fill-rule:nonzero;"/>
                <path d="M2016.08,847.818L2015.93,848.166C2015.76,848.55 2015.86,848.898 2016.25,849.03C2016.49,849.114 2016.79,849.186 2017.12,849.186C2018.1,849.186 2019.18,848.706 2019.7,847.326L2021.95,841.242C2022.12,840.786 2021.9,840.486 2021.42,840.486L2020.55,840.486C2020.15,840.486 2019.91,840.666 2019.8,841.05L2019.18,843.366C2019.1,843.702 2018.98,844.29 2018.98,844.29L2018.95,844.29C2018.95,844.29 2018.83,843.666 2018.72,843.33L2017.99,841.026C2017.87,840.666 2017.63,840.486 2017.24,840.486L2016.3,840.486C2015.8,840.486 2015.59,840.798 2015.8,841.254L2018.09,846.546L2017.97,846.834C2017.82,847.194 2017.49,847.494 2017.12,847.494C2016.97,847.494 2016.85,847.458 2016.76,847.434C2016.5,847.386 2016.25,847.446 2016.08,847.818Z" style="fill:white;fill-rule:nonzero;"/>
            </g>
        </g>
    </g>
    <g id="Artboard3" transform="matrix(1.19906,0,0,1.11547,-527.482,-860.562)">
        <rect x="1620" y="2118" width="427" height="459" style="fill:none;"/>
        <clipPath id="_clip1">
            <rect x="1620" y="2118" width="427" height="459"/>
        </clipPath>
        <g clip-path="url(#_clip1)">
            <g transform="matrix(0.837255,0,0,0.9,323.929,772.5)">
                <circle cx="1803" cy="1750" r="255" style="fill:rgb(254,69,0);"/>
            </g>
            <g transform="matrix(0.833984,0,0,0.896484,-175.445,2102.15)">
                <path d="M2291.91,318.661C2292.84,319.567 2293.24,320.89 2292.96,322.159C2292.95,322.166 2292.95,322.172 2292.95,322.179C2291.68,328.346 2292.2,334.591 2294.3,340.583C2297.73,350.365 2306.02,360.02 2319.68,366.507C2336.02,374.268 2357.54,376.059 2376.01,371.715C2385.29,369.564 2392.22,361.7 2393.18,352.165C2393.34,350.53 2393.32,348.909 2393.14,347.324C2398.75,347.848 2404.37,346.23 2408.85,342.784C2413.33,346.23 2418.95,347.848 2424.56,347.324C2424.38,348.909 2424.36,350.53 2424.53,352.165C2425.49,361.699 2432.41,369.564 2441.75,371.727C2460.16,376.059 2481.68,374.269 2498.02,366.507C2511.68,360.02 2519.97,350.365 2523.4,340.583C2525.5,334.591 2526.03,328.346 2524.75,322.179C2524.75,322.172 2524.75,322.166 2524.74,322.16C2524.46,320.89 2524.86,319.566 2525.79,318.66C2533.94,310.878 2545.56,309.602 2554.7,316.224C2566.09,324.472 2570.54,341.39 2565.7,356.071C2564.14,360.788 2566.71,365.881 2571.43,367.436C2576.15,368.992 2581.24,366.425 2582.8,361.707C2590.12,339.485 2582.5,314.13 2565.26,301.645C2561.66,299.036 2557.83,297.09 2553.9,295.79C2553.9,295.788 2553.89,295.786 2553.89,295.784C2553.5,295.662 2553.21,295.349 2553.12,294.958C2553.02,294.568 2553.14,294.156 2553.42,293.873C2553.43,293.87 2553.43,293.868 2553.43,293.865C2555.58,291.706 2557.59,289.519 2559.46,287.297C2559.46,287.294 2559.46,287.291 2559.46,287.289C2563.17,282.8 2568.3,279.708 2574.01,278.522C2574.01,278.522 2574.01,278.521 2574.02,278.52C2579.53,277.324 2585.21,277.687 2589.72,280.821C2598.19,286.708 2601.98,295.817 2602.88,308.085C2603.24,313.04 2607.55,316.768 2612.51,316.407C2617.46,316.045 2621.19,311.73 2620.83,306.776C2619.47,288.233 2612.79,274.937 2599.99,266.04C2593.11,261.261 2584.68,259.58 2576.21,260.228C2576.2,260.229 2576.2,260.229 2576.19,260.23C2575.76,260.268 2575.33,260.092 2575.05,259.758C2574.77,259.423 2574.67,258.973 2574.79,258.552C2574.79,258.545 2574.79,258.538 2574.79,258.531C2579.03,242.023 2576.22,224.71 2565.79,207.926C2556.28,192.605 2538.02,178.562 2516.06,167.271C2483.33,150.436 2442.39,139.684 2410.42,139.684C2377.09,139.684 2336.15,149.849 2303.35,166.139C2281.35,177.064 2263.01,190.757 2252.98,205.942C2241.61,223.135 2238.52,241.23 2242.98,258.552C2242.98,258.554 2242.98,258.557 2242.98,258.56C2243.1,258.986 2242.99,259.44 2242.71,259.776C2242.43,260.113 2241.99,260.29 2241.56,260.25C2241.55,260.25 2241.55,260.249 2241.54,260.249C2233.05,259.573 2224.61,261.251 2217.72,266.04C2204.91,274.937 2198.23,288.233 2196.88,306.776C2196.51,311.73 2200.24,316.045 2205.2,316.407C2210.15,316.768 2214.47,313.04 2214.83,308.085C2215.72,295.817 2219.52,286.708 2227.99,280.821C2232.21,277.885 2237.46,277.382 2242.64,278.284C2248.77,279.349 2254.3,282.596 2258.21,287.424C2259.98,289.659 2261.93,291.831 2264.01,293.964C2264.01,293.965 2264.01,293.966 2264.02,293.967C2264.3,294.255 2264.41,294.668 2264.32,295.059C2264.22,295.451 2263.93,295.765 2263.55,295.89C2263.54,295.891 2263.54,295.893 2263.53,295.894C2259.7,297.18 2255.97,299.096 2252.45,301.645C2235.21,314.13 2227.58,339.485 2234.91,361.707C2236.46,366.425 2241.56,368.992 2246.27,367.436C2250.99,365.881 2253.56,360.788 2252,356.071C2247.16,341.39 2251.61,324.472 2263,316.224C2272.15,309.602 2283.76,310.878 2291.91,318.661L2291.91,318.661ZM2372.73,345.931C2374.43,346.712 2375.45,348.492 2375.27,350.359C2375.08,352.227 2373.72,353.768 2371.89,354.192C2371.89,354.193 2371.89,354.193 2371.89,354.193C2357.3,357.623 2340.3,356.375 2327.4,350.248C2317.31,345.454 2311.36,338.459 2310.45,331.075C2309.86,326.266 2311.45,321.34 2315.36,316.847C2325.63,305.025 2348.58,299.492 2369.42,303.63C2384.78,306.68 2395.97,314.364 2399.34,323.578C2399.89,325.126 2399.52,326.853 2398.39,328.048C2397.27,329.24 2395.57,329.703 2394,329.25C2388.36,327.52 2381.06,325.389 2376.8,324.579C2363.66,322.075 2357.97,324.754 2355.69,326.567C2355.69,326.57 2355.68,326.573 2355.68,326.576C2354.25,327.735 2353.74,329.686 2354.41,331.398C2354.41,331.407 2354.42,331.416 2354.42,331.425C2355.53,334.094 2358.95,339.485 2369.86,344.62C2370.7,345.016 2371.68,345.461 2372.73,345.931L2372.73,345.931ZM2444.97,345.931C2446.03,345.461 2447,345.016 2447.84,344.62C2458.76,339.485 2462.17,334.094 2463.28,331.425C2463.29,331.416 2463.29,331.407 2463.29,331.398C2463.97,329.686 2463.45,327.735 2462.02,326.576C2462.02,326.573 2462.02,326.57 2462.01,326.567C2459.73,324.754 2454.05,322.075 2440.9,324.579C2436.65,325.389 2429.35,327.52 2423.71,329.247C2422.14,329.705 2420.43,329.243 2419.31,328.048C2418.18,326.853 2417.82,325.126 2418.37,323.578C2421.73,314.364 2432.92,306.68 2448.28,303.63C2469.13,299.492 2492.08,305.025 2502.35,316.847C2506.25,321.34 2507.84,326.266 2507.25,331.075C2506.34,338.459 2500.39,345.454 2490.3,350.248C2477.4,356.375 2460.4,357.623 2445.82,354.193C2445.81,354.193 2445.81,354.193 2445.81,354.192C2443.98,353.768 2442.62,352.227 2442.44,350.359C2442.25,348.492 2443.27,346.712 2444.97,345.931L2444.97,345.931ZM2511.47,300.623C2511.46,300.618 2511.46,300.614 2511.45,300.61C2496.48,287.768 2469.65,281.036 2444.78,285.975C2429.72,288.963 2417.88,295.69 2410.14,303.835C2410.13,303.844 2410.12,303.853 2410.11,303.863C2409.79,304.219 2409.33,304.422 2408.85,304.422C2408.37,304.422 2407.91,304.219 2407.59,303.863C2407.58,303.854 2407.58,303.845 2407.57,303.836C2399.82,295.69 2387.98,288.963 2372.93,285.975C2347.74,280.975 2320.56,287.937 2305.7,301.094C2305.7,301.098 2305.69,301.103 2305.69,301.107C2305.14,301.601 2304.35,301.693 2303.7,301.336C2263.68,278.939 2247.92,246.244 2267.99,215.866C2276.95,202.319 2292.6,190.35 2311.65,180.83C2340.44,166.45 2377.01,157.684 2410.33,157.684C2443.61,157.684 2479.84,166.935 2508.11,181.749C2526.82,191.556 2542.04,203.788 2550.5,217.42C2569.37,247.809 2553.5,279.028 2513.41,300.842C2512.78,301.182 2512.01,301.095 2511.47,300.623ZM2504.69,236.089C2504.9,214.777 2488.17,201.063 2469.59,197.995C2450.68,194.873 2430.87,202.963 2425.61,222.681C2424.33,227.481 2427.19,232.416 2431.99,233.696C2436.79,234.976 2441.72,232.118 2443,227.319C2445.75,217.026 2456.78,214.125 2466.65,215.755C2476.85,217.438 2486.8,224.218 2486.69,235.911C2486.64,240.878 2490.63,244.95 2495.6,245C2500.56,245.049 2504.64,241.056 2504.69,236.089ZM2331.02,235.911C2330.9,224.218 2340.86,217.438 2351.05,215.755C2360.92,214.125 2371.95,217.026 2374.7,227.319C2375.98,232.118 2380.91,234.976 2385.71,233.696C2390.51,232.416 2393.37,227.481 2392.09,222.681C2386.83,202.963 2367.03,194.873 2348.12,197.995C2329.53,201.063 2312.8,214.777 2313.02,236.089C2313.07,241.056 2317.14,245.049 2322.11,245C2327.07,244.95 2331.07,240.878 2331.02,235.911Z" style="fill:rgb(255,219,206);"/>
            </g>
        </g>
    </g>
    <g id="Artboard31" serif:id="Artboard3" transform="matrix(1.19906,0,0,1.11547,-527.482,-263.711)">
        <rect x="1620" y="2118" width="427" height="459" style="fill:none;"/>
        <clipPath id="_clip2">
            <rect x="1620" y="2118" width="427" height="459"/>
        </clipPath>
        <g clip-path="url(#_clip2)">
            <g transform="matrix(0.837255,0,0,0.9,323.929,772.5)">
                <circle cx="1803" cy="1750" r="255" style="fill:rgb(254,69,0);"/>
            </g>
            <g transform="matrix(8.53532,-2.79045,2.68084,9.47513,-17275.5,-189.695)">
                <text x="1954.15px" y="846.666px" style="font-family:'MuseoSansRounded-900', 'Museo Sans Rounded';font-weight:700;font-size:12px;fill:rgb(255,219,206);">Rus<tspan x="1974.84px 1979.75px " y="846.666px 846.666px ">t,</tspan></text>
                <text x="1954.15px" y="857.835px" style="font-family:'MuseoSansRounded-900', 'Museo Sans Rounded';font-weight:700;font-size:12px;fill:rgb(255,219,206);">s<tspan x="1959.79px 1963.21px 1974.04px 1981.6px " y="857.835px 857.835px 857.835px 857.835px ">impl</tspan>y</text>
            </g>
        </g>
    </g>
</svg>
