<?xml version="1.0" encoding="UTF-8" standalone="no"?>
<!-- Created with Inkscape (http://www.inkscape.org/) -->

<svg
   width="112.18306mm"
   height="62.005333mm"
   viewBox="0 0 112.18306 62.005333"
   version="1.1"
   id="svg1"
   xmlns:inkscape="http://www.inkscape.org/namespaces/inkscape"
   xmlns:sodipodi="http://sodipodi.sourceforge.net/DTD/sodipodi-0.dtd"
   xmlns="http://www.w3.org/2000/svg"
   xmlns:svg="http://www.w3.org/2000/svg">
  <sodipodi:namedview
     id="namedview1"
     pagecolor="#505050"
     bordercolor="#eeeeee"
     borderopacity="1"
     inkscape:showpageshadow="0"
     inkscape:pageopacity="0"
     inkscape:pagecheckerboard="0"
     inkscape:deskcolor="#505050"
     inkscape:document-units="mm" />
  <defs
     id="defs1" />
  <g
     inkscape:label="Layer 1"
     inkscape:groupmode="layer"
     id="layer1"
     transform="translate(-1.073401,-0.93401853)">
    <path
       d="m 26.223105,48.289213 c 0.246062,0.23971 0.351896,0.58975 0.277813,0.92551 -0.0026,0.002 -0.0026,0.003 -0.0026,0.005 -0.336022,1.63169 -0.198438,3.28401 0.357188,4.86939 0.907522,2.58815 3.100921,5.14271 6.715135,6.85906 4.323298,2.05343 10.01714,2.5273 14.904001,1.37795 2.455337,-0.56912 4.288903,-2.6498 4.542903,-5.17261 0.04233,-0.43259 0.03704,-0.86148 -0.01058,-1.28084 1.484314,0.13864 2.971275,-0.28946 4.15661,-1.20121 1.185335,0.91175 2.672296,1.33985 4.15661,1.20121 -0.04762,0.41936 -0.05292,0.84825 -0.0079,1.28084 0.254,2.52254 2.08492,4.60349 4.556132,5.17578 4.870986,1.14618 10.564828,0.67257 14.888126,-1.38112 3.614215,-1.71635 5.807615,-4.27091 6.715135,-6.85906 0.55563,-1.58538 0.69586,-3.2377 0.35719,-4.86939 0,-0.002 0,-0.003 -0.003,-0.005 -0.0741,-0.33602 0.0317,-0.68633 0.27781,-0.92604 2.15636,-2.05899 5.23082,-2.39659 7.64912,-0.64452 3.0136,2.18228 4.191,6.6585 2.91042,10.54285 -0.41275,1.24804 0.26723,2.59556 1.516062,3.00699 1.24884,0.41169 2.59557,-0.2675 3.00832,-1.5158 1.93675,-5.87957 -0.0794,-12.58808 -4.640802,-15.8914 -0.9525,-0.6903 -1.96586,-1.20518 -3.00567,-1.54914 0,-5.3e-4 -0.003,-10e-4 -0.003,-0.002 -0.10319,-0.0323 -0.17991,-0.11509 -0.20373,-0.21854 -0.0265,-0.10319 0.005,-0.2122 0.0794,-0.28707 0.003,-8e-4 0.003,-10e-4 0.003,-0.002 0.56886,-0.57124 1.10067,-1.14988 1.59544,-1.73778 0,-8e-4 0,-0.002 0,-0.002 0.98161,-1.18771 2.33892,-2.00581 3.849702,-2.3196 0,0 0,-2.7e-4 0.003,-5.3e-4 1.45786,-0.31644 2.96069,-0.2204 4.15397,0.60881 2.24102,1.5576 3.24379,3.96769 3.48192,7.21359 0.0953,1.31101 1.23561,2.29738 2.54794,2.20187 1.30969,-0.0958 2.29659,-1.23746 2.20134,-2.54821 -0.35984,-4.90616 -2.12726,-8.42406 -5.51393,-10.77806 -1.82033,-1.26444 -4.05077,-1.70921 -6.2918,-1.53776 -0.003,2.7e-4 -0.003,2.7e-4 -0.005,5.3e-4 -0.11377,0.0101 -0.22754,-0.0365 -0.30163,-0.12488 -0.0741,-0.0886 -0.10054,-0.2077 -0.0688,-0.31909 0,-0.002 0,-0.004 0,-0.006 1.12184,-4.367736 0.37836,-8.948466 -2.381252,-13.389232 -2.51619,-4.05368 -7.34749,-7.769223 -13.15775,-10.7566335 -8.65983,-4.454259 -19.491888,-7.29905899 -27.95063,-7.29905899 -8.818575,0 -19.650633,2.68948899 -28.32898,6.99955099 -5.820842,2.8905725 -10.673307,6.5135115 -13.327082,10.5312085 -3.008317,4.54898 -3.825881,9.336614 -2.645837,13.919725 0,5.3e-4 0,10e-4 0,0.002 0.03175,0.11271 0.0026,0.23283 -0.07144,0.32173 -0.07408,0.0892 -0.1905,0.136 -0.304271,0.12541 -0.0026,0 -0.0026,-2.6e-4 -0.0053,-2.6e-4 -2.246316,-0.17886 -4.4794021,0.26511 -6.3023841,1.5322 -3.389318,2.354 -5.156737,5.8719 -5.513925,10.77806 -0.0979,1.31075 0.889001,2.45243 2.201336,2.54821 1.30969,0.0955 2.452692,-0.89086 2.547942,-2.20187 0.235479,-3.2459 1.240897,-5.65599 3.481922,-7.21359 1.1165431,-0.77682 2.5056081,-0.90991 3.8761511,-0.67125 1.621899,0.28178 3.085047,1.14088 4.119569,2.41829 0.468313,0.59134 0.984251,1.16602 1.534586,1.73037 0,2.7e-4 0,5.3e-4 0.0026,8e-4 0.07408,0.0762 0.103188,0.18547 0.07938,0.28892 -0.02646,0.10372 -0.103188,0.1868 -0.20373,0.21987 -0.0026,2.7e-4 -0.0026,7.9e-4 -0.0053,10e-4 -1.013355,0.34025 -2.000253,0.84719 -2.931587,1.52162 -4.561424,3.30332 -6.5801981,10.01183 -4.640799,15.8914 0.410105,1.2483 1.759482,1.92749 3.005671,1.5158 1.248835,-0.41143 1.928816,-1.75895 1.516065,-3.00699 -1.280585,-3.88435 -0.103188,-8.36057 2.910421,-10.54285 2.420941,-1.75207 5.492758,-1.41447 7.649116,0.64479 z m 21.383657,7.21518 c 0.449792,0.20664 0.719667,0.6776 0.672042,1.17158 -0.05027,0.49424 -0.410104,0.90196 -0.894293,1.01414 0,2.7e-4 0,2.7e-4 0,2.7e-4 -3.860276,0.90752 -8.3582,0.57732 -11.77133,-1.04378 -2.66965,-1.26841 -4.243923,-3.11917 -4.484694,-5.07286 -0.156104,-1.27238 0.264584,-2.57572 1.299106,-3.76449 2.717275,-3.1279 8.789472,-4.59184 14.303397,-3.49699 4.064006,0.80697 7.024698,2.84003 7.916345,5.2779 0.145521,0.40958 0.04762,0.86651 -0.251355,1.18269 -0.296334,0.31538 -0.746126,0.43788 -1.161522,0.31803 -1.492253,-0.45773 -3.423714,-1.02156 -4.550841,-1.23587 -3.47663,-0.66252 -4.982111,0.0463 -5.585362,0.52599 0,8e-4 -0.0026,0.002 -0.0026,0.002 -0.378355,0.30665 -0.513292,0.82286 -0.336021,1.27582 0,0.002 0.0026,0.005 0.0026,0.007 0.293688,0.70617 1.198564,2.13254 4.085172,3.49117 0.222251,0.10478 0.481543,0.22252 0.759356,0.34687 z m 19.113528,0 c 0.280459,-0.12435 0.537105,-0.24209 0.759356,-0.34687 2.889254,-1.35863 3.791484,-2.785 4.085172,-3.49117 0.0026,-0.002 0.0026,-0.005 0.0026,-0.007 0.179917,-0.45296 0.04233,-0.96917 -0.336021,-1.27582 0,-7.9e-4 0,-0.002 -0.0026,-0.002 -0.603251,-0.47969 -2.106086,-1.18851 -5.585362,-0.52599 -1.124481,0.21431 -3.055943,0.77814 -4.548195,1.23507 -0.415396,0.12118 -0.867834,-10e-4 -1.164168,-0.31723 -0.29898,-0.31618 -0.39423,-0.77311 -0.248709,-1.18269 0.889001,-2.43787 3.849693,-4.47093 7.913699,-5.2779 5.516571,-1.09485 11.588768,0.36909 14.306043,3.49699 1.031873,1.18877 1.452563,2.49211 1.296463,3.76449 -0.24077,1.95369 -1.815047,3.80445 -4.484697,5.07286 -3.41313,1.6211 -7.911054,1.9513 -11.768684,1.04378 -0.0026,0 -0.0026,0 -0.0026,-2.7e-4 -0.484189,-0.11218 -0.844022,-0.5199 -0.891647,-1.01414 -0.05027,-0.49398 0.219604,-0.96494 0.669396,-1.17158 z m 17.594818,-11.98774 c -0.003,-10e-4 -0.003,-0.002 -0.005,-0.003 -3.96082,-3.39777 -11.059601,-5.17895 -17.639799,-3.87217 -3.984631,0.79057 -7.117302,2.57042 -9.16518,4.72545 -0.0026,0.002 -0.0053,0.005 -0.0079,0.007 -0.08467,0.0942 -0.206376,0.14791 -0.333376,0.14791 -0.127,0 -0.248709,-0.0537 -0.333375,-0.14791 -0.0026,-0.002 -0.0026,-0.005 -0.0053,-0.007 -2.050524,-2.1553 -5.183195,-3.93515 -9.165181,-4.72572 -6.664864,-1.32292 -13.85625,0.51911 -17.787964,4.00023 0,10e-4 -0.0026,0.002 -0.0026,0.003 -0.145521,0.13071 -0.354542,0.15505 -0.526521,0.0606 -10.588641,-5.92587 -14.758481,-14.57642 -9.448285,-22.613931 2.37067,-3.584309 6.511405,-6.751107 11.551725,-9.269939 7.617366,-3.8047085 17.293193,-6.1240455 26.109123,-6.1240455 8.805346,0 18.391215,2.44766 25.870993,6.3671975 4.95036,2.594768 8.97733,5.83115 11.2157,9.43795 4.9927,8.040421 0.79375,16.300448 -9.81341,22.072068 -0.16668,0.09 -0.37041,0.0669 -0.51329,-0.058 z M 82.521228,26.44204 c 0.0556,-5.638799 -4.370921,-9.267294 -9.286886,-10.079035 -5.003279,-0.826029 -10.244682,1.314449 -11.636393,6.531502 -0.338667,1.27 0.418043,2.575718 1.688045,2.914385 1.270001,0.338666 2.574399,-0.417513 2.913066,-1.687248 0.727606,-2.723355 3.645964,-3.490911 6.257406,-3.059641 2.698754,0.445294 5.331362,2.239169 5.302258,5.332941 -0.01323,1.314185 1.042459,2.391568 2.357441,2.404797 1.312335,0.01296 2.391833,-1.043516 2.405063,-2.357701 z m -45.950254,-0.0471 c -0.03175,-3.093772 2.603504,-4.887647 5.299612,-5.332941 2.611442,-0.43127 5.5298,0.336286 6.257406,3.059641 0.338667,1.269735 1.643065,2.025914 2.913066,1.687248 1.270002,-0.338667 2.026712,-1.644385 1.688045,-2.914385 -1.391711,-5.217053 -6.630469,-7.357531 -11.633747,-6.531502 -4.918611,0.811741 -9.345097,4.440236 -9.286889,10.079035 0.01323,1.314185 1.090085,2.370666 2.405066,2.357701 1.312336,-0.01323 2.37067,-1.090612 2.357441,-2.404797 z"
       style="clip-rule:evenodd;fill:#fe4500;fill-rule:evenodd;stroke-width:0.265;stroke-dasharray:none"
       id="path34"
       inkscape:export-filename="..\Documents\Projects\Rust-Simply.github.io\public\phio.svg"
       inkscape:export-xdpi="96"
       inkscape:export-ydpi="96" />
  </g>
</svg>
