<?xml version="1.0" encoding="UTF-8" standalone="no"?>
<!-- Created with Inkscape (http://www.inkscape.org/) -->

<svg
   width="415.54642"
   height="223.44769"
   viewBox="0 0 109.94665 59.120537"
   version="1.1"
   id="svg1"
   xmlns:inkscape="http://www.inkscape.org/namespaces/inkscape"
   xmlns:sodipodi="http://sodipodi.sourceforge.net/DTD/sodipodi-0.dtd"
   xmlns="http://www.w3.org/2000/svg"
   xmlns:svg="http://www.w3.org/2000/svg">
  <sodipodi:namedview
     id="namedview1"
     pagecolor="#505050"
     bordercolor="#eeeeee"
     borderopacity="1"
     inkscape:showpageshadow="0"
     inkscape:pageopacity="0"
     inkscape:pagecheckerboard="0"
     inkscape:deskcolor="#505050"
     inkscape:document-units="px" />
  <defs
     id="defs1" />
  <g
     inkscape:label="Layer 1"
     inkscape:groupmode="layer"
     id="layer1"
     transform="translate(-11.131918,-38.63167)">
    <path
       style="fill:none;stroke:#fe4500;stroke-width:3;stroke-dasharray:none;stroke-opacity:1"
       id="path3"
       sodipodi:type="arc"
       sodipodi:cx="66.228752"
       sodipodi:cy="64.565216"
       sodipodi:rx="42.473785"
       sodipodi:ry="24.433502"
       sodipodi:start="2.2942626"
       sodipodi:end="0.86776942"
       sodipodi:open="true"
       sodipodi:arc-type="arc"
       d="M 38.111672,82.878507 A 42.473785,24.433502 0 0 1 26.580989,55.801646 42.473785,24.433502 0 0 1 66.662813,40.13299 42.473785,24.433502 0 0 1 106.17959,56.269621 42.473785,24.433502 0 0 1 93.689322,83.205259" />
    <path
       style="fill:none;stroke:#fe4500;stroke-width:3;stroke-linecap:round;stroke-linejoin:round;stroke-dasharray:none;stroke-opacity:1"
       id="path4"
       sodipodi:type="arc"
       sodipodi:cx="50.639385"
       sodipodi:cy="87.479538"
       sodipodi:rx="14.305626"
       sodipodi:ry="8.7352943"
       sodipodi:start="0.83446297"
       sodipodi:end="0.14098988"
       sodipodi:arc-type="slice"
       d="m 60.246696,93.951832 a 14.305626,8.7352943 0 0 1 -18.390697,0.422654 14.305626,8.7352943 0 0 1 -3.854212,-10.98847 14.305626,8.7352943 0 0 1 17.060986,-4.2137 14.305626,8.7352943 0 0 1 9.740289,9.534734 L 50.639385,87.479538 Z" />
    <path
       style="fill:none;stroke:#fe4500;stroke-width:3;stroke-linecap:round;stroke-linejoin:round;stroke-dasharray:none;stroke-opacity:1"
       id="path4-6"
       sodipodi:type="arc"
       sodipodi:cx="-81.665459"
       sodipodi:cy="87.469025"
       sodipodi:rx="14.305626"
       sodipodi:ry="8.7352943"
       sodipodi:start="0.83446297"
       sodipodi:end="0.14098988"
       sodipodi:arc-type="slice"
       d="m -72.058148,93.941318 a 14.305626,8.7352943 0 0 1 -18.390697,0.422654 14.305626,8.7352943 0 0 1 -3.854212,-10.988469 14.305626,8.7352943 0 0 1 17.060986,-4.2137 14.305626,8.7352943 0 0 1 9.740289,9.534734 l -14.163677,-1.227512 z"
       transform="scale(-1,1)" />
    <path
       style="fill:none;stroke:#fe4500;stroke-width:3;stroke-linecap:round;stroke-linejoin:round;stroke-dasharray:none;stroke-opacity:1"
       id="path5"
       sodipodi:type="arc"
       sodipodi:cx="53.021988"
       sodipodi:cy="61.400257"
       sodipodi:rx="9.7480812"
       sodipodi:ry="6.2033248"
       sodipodi:start="2.7711112"
       sodipodi:end="5.5513358"
       sodipodi:arc-type="arc"
       d="m 43.935283,63.646259 a 9.7480812,6.2033248 0 0 1 3.981825,-7.530706 9.7480812,6.2033248 0 0 1 12.356865,1.139353"
       sodipodi:open="true" />
    <path
       style="fill:none;stroke:#fe4500;stroke-width:3;stroke-linecap:round;stroke-linejoin:round;stroke-dasharray:none;stroke-opacity:1"
       id="path5-9"
       sodipodi:type="arc"
       sodipodi:cx="-79.015839"
       sodipodi:cy="61.538158"
       sodipodi:rx="9.7480812"
       sodipodi:ry="6.2033248"
       sodipodi:start="2.7711112"
       sodipodi:end="5.5513358"
       sodipodi:arc-type="arc"
       d="m -88.102543,63.784161 a 9.7480812,6.2033248 0 0 1 3.981825,-7.530707 9.7480812,6.2033248 0 0 1 12.356864,1.139353"
       sodipodi:open="true"
       transform="scale(-1,1)" />
    <path
       style="fill:none;stroke:#fe4500;stroke-width:3;stroke-linecap:round;stroke-linejoin:round;stroke-dasharray:none;stroke-opacity:1"
       id="path6"
       sodipodi:type="arc"
       sodipodi:cx="30.636831"
       sodipodi:cy="90.54068"
       sodipodi:rx="9.2416878"
       sodipodi:ry="10.887468"
       sodipodi:start="2.7711112"
       sodipodi:end="5.5513358"
       sodipodi:open="true"
       sodipodi:arc-type="arc"
       d="m 22.022163,94.482643 a 9.2416878,10.887468 0 0 1 3.774977,-13.217158 9.2416878,10.887468 0 0 1 11.71495,1.99968" />
    <path
       style="fill:none;stroke:#fe4500;stroke-width:3;stroke-linecap:round;stroke-linejoin:round;stroke-dasharray:none;stroke-opacity:1"
       id="path7"
       sodipodi:type="arc"
       sodipodi:cx="21.688862"
       sodipodi:cy="82.12188"
       sodipodi:rx="9.0517902"
       sodipodi:ry="9.8113813"
       sodipodi:start="2.7711112"
       sodipodi:end="5.5513358"
       sodipodi:open="true"
       sodipodi:arc-type="arc"
       d="m 13.251207,85.67423 a 9.0517902,9.8113813 0 0 1 3.697409,-11.910811 9.0517902,9.8113813 0 0 1 11.474232,1.802037" />
    <path
       style="fill:none;stroke:#fe4500;stroke-width:3;stroke-linecap:round;stroke-linejoin:round;stroke-dasharray:none;stroke-opacity:1"
       id="path6-0"
       sodipodi:type="arc"
       sodipodi:cx="-102.78136"
       sodipodi:cy="90.088058"
       sodipodi:rx="9.2416878"
       sodipodi:ry="10.887468"
       sodipodi:start="2.7711112"
       sodipodi:end="5.5513358"
       sodipodi:open="true"
       sodipodi:arc-type="arc"
       d="m -111.39603,94.030022 a 9.2416878,10.887468 0 0 1 3.77498,-13.217159 9.2416878,10.887468 0 0 1 11.714952,1.999681"
       transform="scale(-1,1)" />
    <path
       style="fill:none;stroke:#fe4500;stroke-width:3;stroke-linecap:round;stroke-linejoin:round;stroke-dasharray:none;stroke-opacity:1"
       id="path7-0"
       sodipodi:type="arc"
       sodipodi:cx="-110.52163"
       sodipodi:cy="82.578217"
       sodipodi:rx="9.0517902"
       sodipodi:ry="9.8113813"
       sodipodi:start="2.7711112"
       sodipodi:end="5.5513358"
       sodipodi:open="true"
       sodipodi:arc-type="arc"
       d="m -118.95928,86.130567 a 9.0517902,9.8113813 0 0 1 3.6974,-11.910811 9.0517902,9.8113813 0 0 1 11.47424,1.802037"
       transform="scale(-1,1)" />
  </g>
</svg>
